<?xml version="1.0"?>
<svg xmlns="http://www.w3.org/2000/svg" viewBox="0 0 48 48"><g id="line"><path d="M34.05,14.89a9.24,9.24,0,0,1,.31,2.4.75.75,0,0,0,1.5,0,10.82,10.82,0,0,0-.36-2.78.75.75,0,0,0-1.45.38Z"/><path d="M23.88,8A10.28,10.28,0,0,1,25,7.9a9.42,9.42,0,0,1,8.12,4.7.75.75,0,0,0,1.3-.76A11,11,0,0,0,23.71,6.47.75.75,0,1,0,23.88,8Z"/><path d="M3.74,14.64l.86.16s.06,0,.09.1l0,.09,0,.11h0a.22.22,0,0,1,0,.16l-.48.7A1.62,1.62,0,0,0,4.48,18l1.44,1.44A1.64,1.64,0,0,0,8,19.66l.6-.4s.09,0,.19,0l.12,0,.19.08c.05,0,.09.06.09.1l.13.7A1.64,1.64,0,0,0,10.7,21.5a14.75,14.75,0,0,0,4.5,7A10.14,10.14,0,0,1,18.72,35a2.11,2.11,0,0,0-1.25,1.92V38.7A2.1,2.1,0,0,0,18,40a2.07,2.07,0,0,0-.49,1.33,3.93,3.93,0,0,0,3.92,3.93h7.16a4,4,0,0,0,2.78-1.15,4,4,0,0,0,1.14-2.78A2.1,2.1,0,0,0,32,40a2.07,2.07,0,0,0,.49-1.33V36.87A2.11,2.11,0,0,0,31.22,35a10.2,10.2,0,0,1,3.53-6.43,14.9,14.9,0,0,0-11.47-26,14.36,14.36,0,0,0-5.64,1.87,1.62,1.62,0,0,0-1.78,0l-1,.7-.09,0-.22-1.19A1.61,1.61,0,0,0,13,2.5h-2A1.65,1.65,0,0,0,9.31,3.83L9.09,5,9,5.08l-1-.7a1.65,1.65,0,0,0-2.08.19L4.48,6a1.64,1.64,0,0,0-.19,2.09l.63.9-.06.13s-.05.09-.1.1l-1,.18A1.65,1.65,0,0,0,2.41,11v2A1.63,1.63,0,0,0,3.74,14.64Zm20,9.26,3.22,0a40.8,40.8,0,0,0-.56,10.92H24Zm6.6,12.37a.6.6,0,0,1,.58.6V38.7a.6.6,0,0,1-.51.59h-11A.59.59,0,0,1,19,38.7V36.87a.61.61,0,0,1,.59-.6Zm-.14,6.82a2.33,2.33,0,0,1-1.7.71H21.39A2.43,2.43,0,0,1,19,41.37a.57.57,0,0,1,.56-.58H30.41a.58.58,0,0,1,.56.58A2.4,2.4,0,0,1,30.25,43.09ZM23.44,4A13.22,13.22,0,0,1,33.89,7.3a13.39,13.39,0,0,1-.12,20.08,11.67,11.67,0,0,0-4.05,7.39H28a39,39,0,0,1,.6-10.94,6.53,6.53,0,0,0,3.21-.64A2.72,2.72,0,0,0,33,19.68a2.26,2.26,0,0,0-1.59-1.08,3,3,0,0,0-2.44.66,5.62,5.62,0,0,0-1.59,3.09l-3.59,0a4.28,4.28,0,0,0-.7-2.15,2.72,2.72,0,0,0-2-1.12,2,2,0,0,0-2.11,2.28,2.73,2.73,0,0,0,1.21,1.89,4.47,4.47,0,0,0,2.17.6l.16,10.87H20.23a11.66,11.66,0,0,0-4.05-7.37,13.29,13.29,0,0,1-3.91-5.86H13a1.61,1.61,0,0,0,1.6-1.33l.13-.7c0-.06.06-.09.16-.13l.12-.05.17-.08a.2.2,0,0,1,.15,0l.57.39a1.63,1.63,0,0,0,2.1-.18L19.38,18A1.62,1.62,0,0,0,19.57,16l-.48-.71s0-.11,0-.21a.59.59,0,0,0,.05-.14s0-.1.11-.11l.82-.15A1.62,1.62,0,0,0,21.46,13V11A1.65,1.65,0,0,0,20.11,9.4l-1-.18A.16.16,0,0,1,19,9.11v0C19,9,19,9,19,8.93l.57-.83A1.63,1.63,0,0,0,19.38,6l-.59-.59A12.83,12.83,0,0,1,23.44,4Zm5.44,18.33a3.77,3.77,0,0,1,1-1.92,1.5,1.5,0,0,1,1-.34,1,1,0,0,1,.24,0,.74.74,0,0,1,.54.34c.26.46-.13,1.17-.64,1.47A4.5,4.5,0,0,1,28.88,22.32Zm-6.65.07A2.71,2.71,0,0,1,20.92,22a1.29,1.29,0,0,1-.53-.83.53.53,0,0,1,.11-.44.49.49,0,0,1,.38-.14h.05a1.25,1.25,0,0,1,.89.49A2.77,2.77,0,0,1,22.23,22.39ZM3.91,11a.12.12,0,0,1,.1-.13l1-.18a1.68,1.68,0,0,0,1.2-1c.07-.16.14-.3.21-.44a.78.78,0,0,0,0-.77L5.53,7.24a.15.15,0,0,1,0-.18L7,5.64a.15.15,0,0,1,.19,0l1.36.93a.75.75,0,0,0,.74.06c.23-.11.48-.21.73-.3a.74.74,0,0,0,.51-.57l.3-1.63A.12.12,0,0,1,10.92,4h2a.12.12,0,0,1,.12.11l.3,1.63a.77.77,0,0,0,.52.58,4.55,4.55,0,0,1,.72.3.79.79,0,0,0,.76-.06l1.34-.94a.15.15,0,0,1,.18,0l.15.15h0l1.28,1.28a.14.14,0,0,1,0,.17l-.58.84a1.7,1.7,0,0,0-.15,1.6l0,.06a1.7,1.7,0,0,0,1.22,1l1,.18A.13.13,0,0,1,20,11v2a.14.14,0,0,1-.11.13l-.84.15a1.67,1.67,0,0,0-1.26,1.12l.71.24-.75-.13a1.61,1.61,0,0,0,.15,1.57l.48.71a.14.14,0,0,1,0,.16l-1.43,1.43a.15.15,0,0,1-.18,0L16.14,18a1.58,1.58,0,0,0-1.34-.23,2.33,2.33,0,0,0-.32.1l-.11.05-.13.06a1.63,1.63,0,0,0-1,1.22l-.13.72A.12.12,0,0,1,13,20h-2a.12.12,0,0,1-.13-.11l-.13-.68a1.62,1.62,0,0,0-1-1.24L9.5,18l-.13-.06h0A1.61,1.61,0,0,0,7.74,18l-.61.41a.12.12,0,0,1-.16,0L5.54,17a.14.14,0,0,1,0-.17l.48-.7a1.69,1.69,0,0,0,.16-1.55,1.42,1.42,0,0,0-.08-.18,1.61,1.61,0,0,0-1.23-1.06L4,13.16A.12.12,0,0,1,3.91,13Z"/><path d="M8.41,15.2h.37a.5.5,0,0,0,.47-.32l.39-1.05h1.85l.39,1.05a.5.5,0,0,0,.47.32h.37a.49.49,0,0,0,.41-.21.48.48,0,0,0,.06-.46l-2-5.24A.51.51,0,0,0,10.76,9h-.38a.5.5,0,0,0-.47.33l-2,5.24A.48.48,0,0,0,8,15,.49.49,0,0,0,8.41,15.2Zm2.16-3.86.44,1.2h-.89Z"/><rect x="14.61" y="8.84" width="1.34" height="6.36" rx="0.5"/></g></svg>
