<svg id="Layer_1" enable-background="new 0 0 30 30" height="30" viewBox="0 0 30 30" width="30" xmlns="http://www.w3.org/2000/svg"><g><g><path d="m4.071 9.781h-.076c-.985 0-1.788.808-1.788 1.788v7.781c0 .994.803 1.797 1.788 1.797h.077c.984 0 1.789-.807 1.789-1.797v-7.781c-.003-.981-.806-1.788-1.79-1.788z"/><path d="m6.717 22.361c0 .906.737 1.641 1.644 1.641h1.757v4.205c0 .986.806 1.793 1.787 1.793h.076c.987 0 1.792-.807 1.792-1.793v-4.205h2.454v4.205c0 .986.808 1.793 1.791 1.793h.076c.983 0 1.788-.807 1.788-1.793v-4.205h1.758c.903 0 1.641-.734 1.641-1.641v-12.293h-16.564z"/><path d="m19.121 2.613 1.399-2.153c.091-.138.051-.322-.087-.41-.14-.092-.32-.055-.409.084l-1.445 2.23c-1.086-.441-2.299-.696-3.577-.696-1.28 0-2.49.255-3.578.696l-1.443-2.23c-.09-.138-.274-.176-.414-.084-.137.088-.177.273-.088.41l1.399 2.152c-2.518 1.233-4.216 3.555-4.216 6.225 0 .164.01.327.024.486h16.631c.014-.159.021-.322.021-.486.001-2.67-1.698-4.992-4.217-6.224zm-7.976 3.856c-.441 0-.801-.36-.801-.796 0-.449.359-.803.801-.803.444 0 .804.354.804.803-.001.436-.363.796-.804.796zm7.709 0c-.441 0-.803-.36-.803-.796 0-.449.361-.803.803-.803s.8.354.8.803c0 .436-.357.796-.8.796z"/><path d="m26.003 9.781h-.073c-.984 0-1.79.808-1.79 1.788v7.781c0 .994.808 1.797 1.79 1.797h.075c.985 0 1.788-.807 1.788-1.797v-7.781c0-.981-.804-1.788-1.79-1.788z"/></g></g></svg>