<svg height="681pt" viewBox="-21 -21 681.33238 681" width="681pt" xmlns="http://www.w3.org/2000/svg"><path d="m164.679688 67.453125c-6.890626 0-12.476563 5.582031-12.476563 12.472656s5.585937 12.476563 12.476563 12.476563h.117187c6.890625 0 12.414063-5.585938 12.414063-12.476563s-5.640626-12.472656-12.53125-12.472656zm0 0"/><path d="m319.316406 573.957031c-6.890625 0-12.476562 5.589844-12.476562 12.476563 0 6.890625 5.585937 12.472656 12.476562 12.472656h.117188c6.890625 0 12.417968-5.582031 12.417968-12.472656 0-6.886719-5.644531-12.476563-12.535156-12.476563zm0 0"/><path d="m154.527344 196.460938-42.761719-24.664063c-8.382813-4.832031-18.394531-4.828125-26.777344.011719-8.378906 4.839844-13.378906 13.507812-13.378906 23.1875v49.3125c0 9.675781 5 18.34375 13.375 23.179687 4.195313 2.429688 8.796875 3.636719 13.398437 3.636719 4.59375 0 9.183594-1.203125 13.375-3.621094l42.757813-24.648437c8.394531-4.835938 13.40625-13.507813 13.40625-23.195313 0-9.683594-5.007813-18.359375-13.394531-23.199218zm-12.472656 24.78125-42.757813 24.648437c-.226563.128906-.910156.527344-1.828125 0-.910156-.523437-.910156-1.320313-.910156-1.582031v-49.3125c0-.257813 0-1.054688.910156-1.578125.347656-.203125.660156-.269531.929688-.269531.4375 0 .757812.183593.898437.269531l42.765625 24.65625c.222656.132812.910156.53125.910156 1.585937 0 1.054688-.6875 1.449219-.917968 1.582032zm0 0"/><path d="m632.507812 380.707031-19.339843-11.171875c.496093-4.171875.742187-8.378906.742187-12.589844 0-4.207031-.246094-8.421874-.742187-12.59375l19.339843-11.167968c2.871094-1.652344 4.960938-4.378906 5.816407-7.574219.855469-3.199219.40625-6.605469-1.25-9.46875l-29.191407-50.570313c-3.449218-5.964843-11.074218-8.011718-17.039062-4.566406l-19.347656 11.167969c-6.765625-5.082031-14.058594-9.296875-21.8125-12.609375v-22.320312c0-6.890626-5.585938-12.476563-12.476563-12.476563h-.753906v-174.78125c0-27.511719-22.390625-49.9023438-49.90625-49.9023438h-334.34375c-27.515625 0-49.902344 22.3906248-49.902344 49.9023438v67.371094h-89.824219c-6.890624 0-12.476562 5.582031-12.476562 12.472656v179.648437c0 6.890626 5.585938 12.476563 12.476562 12.476563h89.824219v266.972656c0 27.519531 22.386719 49.902344 49.902344 49.902344h334.34375c27.515625 0 49.90625-22.382813 49.90625-49.902344v-99.804687h.75c6.890625 0 12.472656-5.582032 12.472656-12.472656v-22.316407c7.761719-3.320312 15.054688-7.535156 21.820313-12.613281l19.339844 11.164062c5.972656 3.445313 13.597656 1.40625 17.042968-4.566406l29.195313-50.5625c3.445312-5.972656 1.402343-13.601562-4.566407-17.046875zm-607.554687-238.402343h184.636719v154.699218h-184.636719zm461.59375 471.574218h-334.34375c-13.757813 0-24.953125-11.191406-24.953125-24.953125v-29.941406h384.25v29.941406c0 13.761719-11.195312 24.953125-24.953125 24.953125zm24.953125-79.84375h-384.25v-212.082031h94.816406c6.890625 0 12.476563-5.585937 12.476563-12.476563v-179.648437c0-6.890625-5.585938-12.472656-12.476563-12.472656h-94.816406v-67.371094c0-13.757813 11.195312-24.949219 24.953125-24.949219h334.34375c13.757813 0 24.953125 11.191406 24.953125 24.949219v17.46875h-296.800781c-6.894531 0-12.476563 5.582031-12.476563 12.472656s5.582032 12.476563 12.476563 12.476563h296.800781v132.363281h-32.691406c-6.882813 0-12.472656 5.585937-12.472656 12.476563v22.320312c-7.753907 3.3125-15.050782 7.53125-21.8125 12.609375l-19.34375-11.167969c-5.96875-3.445312-13.601563-1.398437-17.042969 4.566406l-29.195313 50.570313c-1.65625 2.863281-2.105468 6.269531-1.246094 9.46875.855469 3.195313 2.945313 5.921875 5.8125 7.574219l19.34375 11.167968c-.492187 4.171876-.746093 8.386719-.746093 12.59375 0 4.210938.246093 8.417969.746093 12.597657l-19.34375 11.167969c-5.96875 3.445312-8.011718 11.070312-4.566406 17.042968l29.195313 50.5625c3.441406 5.964844 11.074219 8.011719 17.042969 4.566406l19.34375-11.164062c6.761718 5.078125 14.058593 9.292969 21.8125 12.613281v22.316407c0 6.890624 5.589843 12.472656 12.472656 12.472656h32.691406zm75.765625-193.652344c1.125 5.421876 1.695313 10.992188 1.695313 16.5625 0 5.570313-.570313 11.144532-1.695313 16.558594-1.097656 5.273438 1.316406 10.648438 5.972656 13.34375l15.996094 9.230469-16.722656 28.960937-16.011719-9.246093c-4.667969-2.695313-10.535156-2.085938-14.550781 1.507812-8.382813 7.492188-18.015625 13.070313-28.640625 16.558594-5.121094 1.6875-8.582032 6.460937-8.582032 11.851563v18.460937h-33.441406v-18.460937c0-5.390626-3.453125-10.164063-8.578125-11.851563-10.621093-3.496094-20.257812-9.066406-28.640625-16.558594-4.011718-3.59375-9.886718-4.203125-14.554687-1.507812l-16.007813 9.246093-16.722656-28.960937 15.992188-9.230469c4.664062-2.695312 7.074218-8.078125 5.976562-13.34375-1.125-5.414062-1.695312-10.988281-1.695312-16.558594 0-5.570312.570312-11.148437 1.695312-16.5625 1.097656-5.269531-1.3125-10.644531-5.976562-13.339843l-15.992188-9.230469 16.722656-28.964844 16.007813 9.246094c4.667969 2.695312 10.542969 2.085938 14.554687-1.503906 8.382813-7.5 18.019532-13.070313 28.640625-16.5625 5.117188-1.683594 8.578125-6.460938 8.578125-11.851563v-18.457031h33.441406v18.457031c0 5.390625 3.460938 10.171875 8.582032 11.851563 10.617187 3.492187 20.253906 9.066406 28.636718 16.5625 4.019532 3.589844 9.886719 4.199218 14.554688 1.503906l16.007812-9.246094 16.722657 28.964844-15.992188 9.234375c-4.65625 2.691406-7.070312 8.066406-5.972656 13.335937zm0 0"/><path d="m508.011719 302.523438c-30.011719 0-54.421875 24.414062-54.421875 54.421874 0 30.003907 24.410156 54.417969 54.421875 54.417969 30.003906 0 54.414062-24.414062 54.414062-54.417969 0-30.007812-24.410156-54.421874-54.414062-54.421874zm0 83.890624c-16.253907 0-29.46875-13.21875-29.46875-29.46875s13.214843-29.46875 29.46875-29.46875c16.246093 0 29.46875 13.21875 29.46875 29.46875s-13.222657 29.46875-29.46875 29.46875zm0 0"/><path d="m346.820312 414.273438h-167.585937c-6.890625 0-12.476563 5.585937-12.476563 12.476562 0 6.886719 5.585938 12.472656 12.476563 12.472656h167.585937c6.890626 0 12.476563-5.585937 12.476563-12.472656 0-6.890625-5.585937-12.476562-12.476563-12.476562zm0 0"/><path d="m263.027344 464.175781h-83.796875c-6.890625 0-12.476563 5.585938-12.476563 12.472657 0 6.890624 5.585938 12.472656 12.476563 12.472656h83.796875c6.890625 0 12.472656-5.582032 12.472656-12.472656 0-6.886719-5.582031-12.472657-12.472656-12.472657zm0 0"/><path d="m312.921875 464.175781c-3.277344 0-6.5 1.332031-8.820313 3.65625-2.320312 2.320313-3.652343 5.535157-3.652343 8.816407s1.332031 6.5 3.652343 8.820312c2.320313 2.316406 5.542969 3.652344 8.820313 3.652344 3.296875 0 6.503906-1.328125 8.835937-3.652344 2.320313-2.320312 3.640626-5.539062 3.640626-8.820312s-1.320313-6.496094-3.640626-8.816407c-2.332031-2.324219-5.539062-3.65625-8.835937-3.65625zm0 0"/><path d="m289.019531 142.304688h167.585938c6.894531 0 12.476562-5.585938 12.476562-12.476563s-5.582031-12.472656-12.476562-12.472656h-167.585938c-6.890625 0-12.476562 5.582031-12.476562 12.472656s5.585937 12.476563 12.476562 12.476563zm0 0"/><path d="m385.285156 179.730469c0-6.890625-5.582031-12.472657-12.472656-12.472657h-83.796875c-6.890625 0-12.476563 5.582032-12.476563 12.472657s5.585938 12.476562 12.476563 12.476562h83.796875c6.890625 0 12.472656-5.585937 12.472656-12.476562zm0 0"/></svg>