<svg version="1.1" id="Layer_1" xmlns="http://www.w3.org/2000/svg" xmlns:xlink="http://www.w3.org/1999/xlink" x="0px" y="0px" viewBox="0 0 512 512" style="enable-background:new 0 0 512 512;" xml:space="preserve">
<g>
	<g>
		
			<line style="fill:none;stroke:#000000;stroke-width:20;stroke-linecap:round;stroke-linejoin:round;stroke-miterlimit:10;" x1="268.878" y1="234.35" x2="241.488" y2="277.65"/>
		
			<polyline style="fill:none;stroke:#000000;stroke-width:20;stroke-linecap:round;stroke-linejoin:round;stroke-miterlimit:10;" points="&#10;&#9;&#9;&#9;212.774,277.65 191.905,256 212.774,234.35 &#9;&#9;"/>
		
			<polyline style="fill:none;stroke:#000000;stroke-width:20;stroke-linecap:round;stroke-linejoin:round;stroke-miterlimit:10;" points="&#10;&#9;&#9;&#9;299.226,234.35 320.095,256 299.226,277.65 &#9;&#9;"/>
	</g>
	<path style="fill:none;stroke:#000000;stroke-width:20;stroke-linecap:round;stroke-linejoin:round;stroke-miterlimit:10;" d="&#10;&#9;&#9;M357.699,310.651V163.009c0-5.523-4.477-10-10-10H164.301c-5.523,0-10,4.477-10,10v183.398c0,5.523,4.477,10,10,10h147.086"/>
	<path style="fill:none;stroke:#000000;stroke-width:20;stroke-linecap:round;stroke-linejoin:round;stroke-miterlimit:10;" d="&#10;&#9;&#9;M492,300.729h-69.459c-5.523,0-10-4.477-10-10v-69.459c0-5.523,4.477-10,10-10H492c5.523,0,10,4.477,10,10v69.459&#10;&#9;&#9;C502,296.252,497.523,300.729,492,300.729z"/>
	
		<line style="fill:none;stroke:#000000;stroke-width:20;stroke-linecap:round;stroke-linejoin:round;stroke-miterlimit:10;" x1="360.442" y1="256" x2="406.578" y2="256"/>
	<path style="fill:none;stroke:#000000;stroke-width:20;stroke-linecap:round;stroke-linejoin:round;stroke-miterlimit:10;" d="&#10;&#9;&#9;M20,211.271h69.459c5.523,0,10,4.477,10,10v69.459c0,5.523-4.477,10-10,10H20c-5.523,0-10-4.477-10-10v-69.459&#10;&#9;&#9;C10,215.748,14.477,211.271,20,211.271z"/>
	
		<line style="fill:none;stroke:#000000;stroke-width:20;stroke-linecap:round;stroke-linejoin:round;stroke-miterlimit:10;" x1="151.558" y1="256" x2="105.422" y2="256"/>
	<path style="fill:none;stroke:#000000;stroke-width:20;stroke-linecap:round;stroke-linejoin:round;stroke-miterlimit:10;" d="&#10;&#9;&#9;M300.729,20v69.459c0,5.523-4.477,10-10,10h-69.459c-5.523,0-10-4.477-10-10V20c0-5.523,4.477-10,10-10h69.459&#10;&#9;&#9;C296.252,10,300.729,14.477,300.729,20z"/>
	
		<line style="fill:none;stroke:#000000;stroke-width:20;stroke-linecap:round;stroke-linejoin:round;stroke-miterlimit:10;" x1="256" y1="151.558" x2="256" y2="105.422"/>
	<path style="fill:none;stroke:#000000;stroke-width:20;stroke-linecap:round;stroke-linejoin:round;stroke-miterlimit:10;" d="&#10;&#9;&#9;M211.271,492v-69.459c0-5.523,4.477-10,10-10h69.459c5.523,0,10,4.477,10,10V492c0,5.523-4.477,10-10,10h-69.459&#10;&#9;&#9;C215.748,502,211.271,497.523,211.271,492z"/>
	
		<line style="fill:none;stroke:#000000;stroke-width:20;stroke-linecap:round;stroke-linejoin:round;stroke-miterlimit:10;" x1="256" y1="360.442" x2="256" y2="406.578"/>
	<path style="fill:none;stroke:#000000;stroke-width:20;stroke-linecap:round;stroke-linejoin:round;stroke-miterlimit:10;" d="&#10;&#9;&#9;M99.459,20v69.459c0,5.523-4.477,10-10,10H20c-5.523,0-10-4.477-10-10V20c0-5.523,4.477-10,10-10h69.459&#10;&#9;&#9;C94.982,10,99.459,14.477,99.459,20z"/>
	
		<line style="fill:none;stroke:#000000;stroke-width:20;stroke-linecap:round;stroke-linejoin:round;stroke-miterlimit:10;" x1="54.729" y1="105.422" x2="54.729" y2="206.932"/>
	
		<line style="fill:none;stroke:#000000;stroke-width:20;stroke-linecap:round;stroke-linejoin:round;stroke-miterlimit:10;" x1="105.422" y1="54.729" x2="205.957" y2="54.729"/>
	<path style="fill:none;stroke:#000000;stroke-width:20;stroke-linecap:round;stroke-linejoin:round;stroke-miterlimit:10;" d="&#10;&#9;&#9;M412.541,20v69.459c0,5.523,4.477,10,10,10H492c5.523,0,10-4.477,10-10V20c0-5.523-4.477-10-10-10h-69.459&#10;&#9;&#9;C417.018,10,412.541,14.477,412.541,20z"/>
	
		<line style="fill:none;stroke:#000000;stroke-width:20;stroke-linecap:round;stroke-linejoin:round;stroke-miterlimit:10;" x1="457.271" y1="105.422" x2="457.271" y2="206.932"/>
	
		<line style="fill:none;stroke:#000000;stroke-width:20;stroke-linecap:round;stroke-linejoin:round;stroke-miterlimit:10;" x1="406.578" y1="54.729" x2="306.043" y2="54.729"/>
	<path style="fill:none;stroke:#000000;stroke-width:20;stroke-linecap:round;stroke-linejoin:round;stroke-miterlimit:10;" d="&#10;&#9;&#9;M99.459,492v-69.459c0-5.523-4.477-10-10-10H20c-5.523,0-10,4.477-10,10V492c0,5.523,4.477,10,10,10h69.459&#10;&#9;&#9;C94.982,502,99.459,497.523,99.459,492z"/>
	
		<line style="fill:none;stroke:#000000;stroke-width:20;stroke-linecap:round;stroke-linejoin:round;stroke-miterlimit:10;" x1="54.729" y1="406.578" x2="54.729" y2="305.068"/>
	
		<line style="fill:none;stroke:#000000;stroke-width:20;stroke-linecap:round;stroke-linejoin:round;stroke-miterlimit:10;" x1="105.422" y1="457.271" x2="205.957" y2="457.271"/>
	<path style="fill:none;stroke:#000000;stroke-width:20;stroke-linecap:round;stroke-linejoin:round;stroke-miterlimit:10;" d="&#10;&#9;&#9;M412.541,492v-69.459c0-5.523,4.477-10,10-10H492c5.523,0,10,4.477,10,10V492c0,5.523-4.477,10-10,10h-69.459&#10;&#9;&#9;C417.018,502,412.541,497.523,412.541,492z"/>
	
		<line style="fill:none;stroke:#000000;stroke-width:20;stroke-linecap:round;stroke-linejoin:round;stroke-miterlimit:10;" x1="457.271" y1="406.578" x2="457.271" y2="305.068"/>
	
		<line style="fill:none;stroke:#000000;stroke-width:20;stroke-linecap:round;stroke-linejoin:round;stroke-miterlimit:10;" x1="406.578" y1="457.271" x2="306.043" y2="457.271"/>
	
		<line style="fill:none;stroke:#000000;stroke-width:20;stroke-linecap:round;stroke-linejoin:round;stroke-miterlimit:10;" x1="356.31" y1="355.823" x2="356.31" y2="355.823"/>
</g>
<g>
</g>
<g>
</g>
<g>
</g>
<g>
</g>
<g>
</g>
<g>
</g>
<g>
</g>
<g>
</g>
<g>
</g>
<g>
</g>
<g>
</g>
<g>
</g>
<g>
</g>
<g>
</g>
<g>
</g>
</svg>