<svg id="Capa_1" enable-background="new 0 0 512 512" height="512" viewBox="0 0 512 512" width="512" xmlns="http://www.w3.org/2000/svg"><g><g id="Page-1_90_"><g id="_x30_91---Chatbot"><path id="Shape_700_" d="m145.067 76.8h-93.867c-4.713 0-8.533 3.821-8.533 8.533s3.821 8.533 8.533 8.533h93.867c4.713 0 8.533-3.821 8.533-8.533s-3.821-8.533-8.533-8.533z"/><path id="Shape_699_" d="m210.833 70.767c-3.332-3.331-8.734-3.331-12.066 0l-2.5 2.5-2.5-2.5c-3.348-3.234-8.671-3.188-11.962.104-3.292 3.292-3.338 8.614-.104 11.962l2.5 2.5-2.5 2.5c-2.218 2.143-3.108 5.315-2.327 8.299s3.111 5.313 6.094 6.094c2.984.781 6.156-.109 8.299-2.327l2.5-2.5 2.5 2.5c3.348 3.234 8.671 3.188 11.962-.104 3.292-3.292 3.338-8.614.104-11.962l-2.5-2.5 2.5-2.5c3.331-3.332 3.331-8.734 0-12.066z"/><circle id="Oval_297_" cx="452.267" cy="51.2" r="8.533"/><circle id="Oval_296_" cx="418.133" cy="51.2" r="8.533"/><circle id="Oval_295_" cx="384" cy="51.2" r="8.533"/><path id="Shape_698_" d="m469.333 0h-426.666c-23.553.028-42.639 19.114-42.667 42.667v375.467c.028 23.552 19.114 42.638 42.667 42.667h17.067c.028 28.265 22.935 51.172 51.2 51.2h119.466c28.265-.028 51.172-22.935 51.2-51.2h187.733c23.552-.028 42.638-19.114 42.667-42.667v-375.467c-.028-23.553-19.114-42.639-42.667-42.667zm-452.266 51.2h204.8c4.713 0 8.533 3.821 8.533 8.533v17.067c0 14.138 11.462 25.6 25.6 25.6h238.933v17.067h-477.866zm25.6-34.133h426.667c14.138 0 25.6 11.462 25.6 25.6v42.667h-238.934c-4.713 0-8.533-3.82-8.533-8.533v-17.068c0-14.138-11.462-25.6-25.6-25.6h-203.23c3.603-10.191 13.22-17.022 24.03-17.066zm221.866 443.733c0 18.851-15.282 34.133-34.133 34.133v-51.2c0-4.713-3.821-8.533-8.533-8.533-4.713 0-8.533 3.821-8.533 8.533v51.2h-85.334v-51.2c0-4.713-3.821-8.533-8.533-8.533-4.713 0-8.533 3.821-8.533 8.533v51.2c-18.851 0-34.133-15.282-34.133-34.133v-25.6c.028-23.552 19.114-42.638 42.667-42.667h102.4c23.552.028 42.638 19.114 42.667 42.667v25.6zm136.875-153.6h-17.408c-4.713 0-8.533 3.821-8.533 8.533.02 2.462 1.118 4.791 3.004 6.374l-37.137 27.503v-25.344h8.533c4.713 0 8.533-3.821 8.533-8.533 0-4.713-3.821-8.533-8.533-8.533h-42.667v-17.067c.006-22.898-9.223-44.83-25.6-60.834v-41.566c0-9.426 7.641-17.067 17.067-17.067h145.067c9.426 0 17.067 7.641 17.067 17.067v102.4c0 9.426-7.641 17.067-17.067 17.067zm-111.275-17.067v17.067c-.042 37.685-30.582 68.224-68.267 68.267h-102.4c-37.684-.043-68.224-30.582-68.266-68.267v-17.067c.042-37.685 30.582-68.224 68.267-68.267h102.4c37.685.043 68.224 30.582 68.266 68.267zm179.2 153.6h-187.733v-8.533c-.008-19.847-9.873-38.393-26.325-49.493 25.793-11.018 44.554-33.971 50.219-61.44h18.773v25.344c.002 6.564 3.715 12.563 9.59 15.492 5.875 2.928 12.901 2.283 18.143-1.668l52.25-39.168h39.484c18.851 0 34.133-15.282 34.133-34.133v-102.4c0-18.851-15.282-34.133-34.133-34.133h-145.067c-18.851 0-34.133 15.282-34.133 34.133v28.612c-12.95-7.556-27.673-11.54-42.667-11.546h-102.4c-47.107.052-85.282 38.226-85.333 85.333v17.067c.035 34.203 20.464 65.089 51.925 78.507-16.452 11.1-26.317 29.647-26.325 49.493v8.533h-17.067c-14.138 0-25.6-11.462-25.6-25.6v-281.6h477.867v281.6c-.001 14.139-11.462 25.6-25.601 25.6z"/><path id="Shape_697_" d="m119.467 273.067c-4.713 0-8.533 3.82-8.533 8.533v17.067c0 4.713 3.821 8.533 8.533 8.533 4.713 0 8.533-3.82 8.533-8.533v-17.067c0-4.713-3.821-8.533-8.533-8.533z"/><path id="Shape_696_" d="m213.333 281.6v17.067c0 4.713 3.821 8.533 8.533 8.533 4.713 0 8.533-3.82 8.533-8.533v-17.067c0-4.713-3.821-8.533-8.533-8.533s-8.533 3.82-8.533 8.533z"/><path id="Shape_695_" d="m187.733 307.2h-34.133c-4.713 0-8.533 3.821-8.533 8.533 0 4.713 3.82 8.533 8.533 8.533h34.133c4.713 0 8.533-3.821 8.533-8.533.001-4.712-3.82-8.533-8.533-8.533z"/><path id="Shape_694_" d="m119.467 238.933c-28.265.028-51.172 22.935-51.2 51.2v17.067c.028 28.265 22.935 51.172 51.2 51.2h102.4c28.265-.028 51.172-22.935 51.2-51.2v-17.067c-.028-28.265-22.935-51.172-51.2-51.2zm136.533 51.2v17.067c0 18.851-15.282 34.133-34.133 34.133h-102.4c-18.851 0-34.133-15.282-34.133-34.133v-17.067c0-18.851 15.282-34.133 34.133-34.133h102.4c18.851 0 34.133 15.282 34.133 34.133z"/><path id="Shape_693_" d="m358.4 204.8c4.713 0 8.533-3.821 8.533-8.533s-3.82-8.533-8.533-8.533h-42.667c-4.713 0-8.533 3.821-8.533 8.533s3.821 8.533 8.533 8.533z"/><path id="Shape_692_" d="m426.667 230.4h-102.4c-4.713 0-8.533 3.821-8.533 8.533 0 4.713 3.821 8.533 8.533 8.533h102.4c4.713 0 8.533-3.821 8.533-8.533s-3.82-8.533-8.533-8.533z"/><path id="Shape_691_" d="m426.667 264.533h-93.867c-4.713 0-8.533 3.82-8.533 8.533s3.82 8.533 8.533 8.533h93.867c4.713 0 8.533-3.82 8.533-8.533s-3.82-8.533-8.533-8.533z"/></g></g></g></svg>