<?xml version="1.0"?>
<svg xmlns="http://www.w3.org/2000/svg" id="Layer_1" data-name="Layer 1" viewBox="0 0 64 64"><path d="M6.757,18.74V51.609H4.09a1,1,0,0,0-1,1A9.4,9.4,0,0,0,12.48,62H51.52a9.4,9.4,0,0,0,9.39-9.391,1,1,0,0,0-1-1H57.243V18.74A3.848,3.848,0,0,0,53.4,14.9H49.389a.994.994,0,0,0,.277-.684V5.957a1,1,0,0,0-1-1H45.217V3a1,1,0,0,0-1-1H21.147a1,1,0,0,0-1,1V4.957H16.7a1,1,0,0,0-1,1v8.26a.991.991,0,0,0,.278.684H10.605A3.848,3.848,0,0,0,6.757,18.74ZM51.52,60H12.48a7.4,7.4,0,0,1-7.323-6.391H58.843A7.4,7.4,0,0,1,51.52,60ZM47.666,6.957v6.26H45.217V6.957ZM43.217,4V15.882c0,.007,0,.012,0,.019s0,.013,0,.02v6.25H22.147V14.246c0-.01.006-.019.006-.029a.247.247,0,0,0-.006-.029v-8.2c0-.01.006-.019.006-.029s0-.019-.006-.029V4ZM37.91,48v.669H35.154v-4.3H37.91Zm1-5.631H34.154a1,1,0,0,0-1,1V47H30.846V43.367a1,1,0,0,0-1-1H25.09a1,1,0,0,0-1,1V46.4l-1.2-2.119a13,13,0,0,1-.57-11.695L24.5,27.7h1.57a.886.886,0,0,0,.155.031H37.776a.915.915,0,0,0,.147-.031H39.5l2.182,4.878a13.008,13.008,0,0,1-.571,11.7L39.91,46.4v-3.03A1,1,0,0,0,38.91,42.367ZM26.09,48.008V44.367h2.756v4.3H26.09Zm-5.6-16.24a14.813,14.813,0,0,0-1.169,8.064,3.513,3.513,0,0,1-2.551-.786c-.612-.644-.78-1.767-.5-3.34A9.522,9.522,0,0,1,22.044,28.3Zm23.016,0L41.957,28.3a9.526,9.526,0,0,1,5.771,7.411c.279,1.568.112,2.689-.5,3.332a3.473,3.473,0,0,1-2.555.793A14.807,14.807,0,0,0,43.508,31.767ZM27.225,25.7V24.171h9.551V25.7ZM17.7,6.957h2.449v6.26H17.7ZM8.757,18.74A1.846,1.846,0,0,1,10.605,16.9h9.542v6.27a1,1,0,0,0,1,1h4.078V25.7H23.848a1.081,1.081,0,0,0-.15.011A11.847,11.847,0,0,0,14.3,35.356c-.4,2.233-.055,3.938,1.018,5.068a5.277,5.277,0,0,0,3.963,1.414c.142,0,.3-.023.447-.03a14.788,14.788,0,0,0,1.416,3.459L22.981,48.5a1,1,0,0,0,.871.507h.238v.664a1,1,0,0,0,1,1h4.756a1,1,0,0,0,1-1V49h2.308v.664a1,1,0,0,0,1,1H38.91a1,1,0,0,0,1-1V49h.238a1,1,0,0,0,.871-.507l1.832-3.227a14.815,14.815,0,0,0,1.413-3.446,5.532,5.532,0,0,0,4.42-1.408c1.069-1.129,1.41-2.83,1.012-5.057A11.848,11.848,0,0,0,40.3,25.714a1.211,1.211,0,0,0-.158-.011H38.776V24.171h5.441a1,1,0,0,0,1-1V16.9H53.4a1.846,1.846,0,0,1,1.848,1.839V51.607H8.757Z"/><path d="M10.59,57.51a.872.872,0,0,0,.32.219.968.968,0,0,0,.38.071.936.936,0,0,0,.38-.071A.917.917,0,0,0,12,57.51a.935.935,0,0,0,.29-.71.971.971,0,0,0-.29-.7,1.9,1.9,0,0,0-.15-.13c-.06-.031-.121-.06-.17-.09-.071-.021-.13-.04-.19-.061a1.341,1.341,0,0,0-.39,0c-.07.021-.13.04-.19.061s-.12.059-.17.09a.639.639,0,0,0-.15.13.972.972,0,0,0-.3.7.987.987,0,0,0,.08.389A.87.87,0,0,0,10.59,57.51Z"/><path d="M14.22,57.51a.954.954,0,0,0,.71.29.987.987,0,0,0,.7-.29.995.995,0,0,0,.3-.7,1.025,1.025,0,0,0-.08-.39,1,1,0,0,0-.22-.32,1.609,1.609,0,0,0-.151-.13c-.049-.031-.109-.06-.169-.09a1.55,1.55,0,0,0-.19-.061.972.972,0,0,0-.58.061,1.066,1.066,0,0,0-.54.54,1,1,0,0,0-.07.39.984.984,0,0,0,.07.379A.87.87,0,0,0,14.22,57.51Z"/><path d="M18.56,57.81a1,1,0,0,0,.7-.3.867.867,0,0,0,.219-.321.988.988,0,0,0,.081-.389.978.978,0,0,0-.081-.38.864.864,0,0,0-.219-.32.625.625,0,0,0-.151-.13,1.9,1.9,0,0,0-.17-.09c-.059-.021-.12-.04-.189-.061a1,1,0,0,0-.9.281,1.174,1.174,0,0,0-.22.32,1.021,1.021,0,0,0-.07.38,1.007,1.007,0,0,0,1,1.01Z"/><path d="M21.81,57.729a.967.967,0,0,0,.379.071.99.99,0,0,0,1-.99,1.026,1.026,0,0,0-.08-.39.947.947,0,0,0-.21-.32.959.959,0,0,0-.159-.13c-.051-.031-.11-.06-.171-.09a1.1,1.1,0,0,0-.189-.061.939.939,0,0,0-.57.061,1.008,1.008,0,0,0-.331.22.975.975,0,0,0-.209.32,1.007,1.007,0,0,0-.081.39.991.991,0,0,0,.29.7A1.169,1.169,0,0,0,21.81,57.729Z"/><path d="M36.6,57.805H48.857a1,1,0,0,0,0-2H36.6a1,1,0,0,0,0,2Z"/><path d="M39.971,30.82a1,1,0,0,0-1-1H25.029a1,1,0,0,0-1,1v9.62a1,1,0,0,0,1,1H38.971a1,1,0,0,0,1-1Zm-2,1v3.19a.984.984,0,0,0-.766-.379H32.919a1,1,0,0,0-.665.253l-.091-.68a1,1,0,0,0-1.519-.715l-1.835,1.142H26.8a.984.984,0,0,0-.766.379V31.82ZM26.029,39.44V36.252a.984.984,0,0,0,.766.379h2.3a1,1,0,0,0,.528-.152L30.388,36l.232,1.731a1,1,0,0,0,.768.841.943.943,0,0,0,.223.026,1,1,0,0,0,.833-.448l1.011-1.523h3.75a.984.984,0,0,0,.766-.379V39.44Z"/><path d="M27.955,12.32a1,1,0,0,0,1-1V8.8a1,1,0,1,0-2,0V11.32A1,1,0,0,0,27.955,12.32Z"/><path d="M37.409,12.32a1,1,0,0,0,1-1V8.8a1,1,0,0,0-2,0V11.32A1,1,0,0,0,37.409,12.32Z"/><path d="M27.789,14.774a1,1,0,0,0-.131,1.409A6.618,6.618,0,0,0,32.582,18.5l.156,0a6.573,6.573,0,0,0,5.006-2.616,1,1,0,1,0-1.615-1.18,4.6,4.6,0,0,1-3.44,1.8A4.489,4.489,0,0,1,29.2,14.905,1,1,0,0,0,27.789,14.774Z"/></svg>
