<svg clip-rule="evenodd" fill-rule="evenodd" height="512" image-rendering="optimizeQuality" shape-rendering="geometricPrecision" text-rendering="geometricPrecision" viewBox="0 0 6.82666 6.82666" width="512" xmlns="http://www.w3.org/2000/svg"><g id="Layer_x0020_1"><g id="_450791104"><path id="_450791896" d="m5.56188 5.83677h-1.11336c-.0383071 0-.0693661-.0310669-.0693661-.0693622 0-.0383031.0310591-.0693701.0693661-.0693701l1.11336-.00000394c.228776 0 .414898-.186063.414898-.414882l.00000394-4.3454c0-.228819-.18613-.414886-.414902-.414886l-4.29713-.00001181c-.228764 0-.414886.186079-.414886.414898v4.34539c0 .228819.186122.414898.414886.414898l1.11337-.00000394c.0383071 0 .0693661.0310748.0693661.069374 0 .0382835-.0310591.0693661-.0693661.0693661l-1.11337-.00000394c-.305268 0-.553622-.248327-.553622-.553618v-4.3454c0-.305303.248354-.553622.553622-.553622l4.29713-.00001181c.305272 0 .553634.248343.553634.553634l.00000394 4.34539c0 .305299-.248366.553634-.553638.55363z"/><path id="_450791440" d="m6.04615 1.66744h-5.26565c-.038311 0-.0693701-.031063-.0693701-.0693583 0-.0382992.0310591-.0693661.0693701-.0693661l5.26565-.00001181c.0383071 0 .0693661.0310827.0693661.069378.00000394.0382913-.0310591.0693701-.0693661.0693583z"/><path id="_450791416" d="m1.44778 1.11357h.395031v-.175587h-.395031zm.464402.13874h-.533768c-.0383071 0-.0693622-.0310591-.0693622-.0693543v-.314343c0-.0382835.0310551-.0693543.0693622-.0693543l.533768-.00001181c.0383071 0 .0693661.0310827.0693661.069378v.314315c0 .0383031-.0310591.0693819-.0693661.0693701z"/><path id="_450791704" d="m2.38369 1.11357h.395039v-.175587h-.395039zm.464398.13874h-.533764c-.038311 0-.0693701-.0310591-.0693701-.0693543v-.314343c0-.0382835.0310591-.0693543.0693701-.0693543l.533764-.00001181c.0383189 0 .0693622.0310827.0693622.069378l.00000394.314315c0 .0383031-.0310472.0693819-.0693661.0693701z"/><path id="_450791680" d="m3.31959 1.11357h.395047v-.175587h-.395047zm.464406.13874h-.533764c-.0383228 0-.0693701-.0310591-.0693701-.0693543v-.314343c0-.0382835.0310472-.0693543.0693701-.0693543l.533764-.00001181c.0383189 0 .0693661.0310827.0693661.069378v.314315c0 .0383031-.0310472.0693819-.0693661.0693701z"/><path id="_450791584" d="m3.41333 4.33138c-.374587 0-.679343.304815-.679343.679358 0 .37465.304756.67935.679343.67935.374575-.00000394.679327-.304689.679327-.67935.00000394-.374555-.304752-.679358-.679327-.679358zm0 1.49744c-.451087 0-.818079-.366949-.818079-.818083 0-.45102.366992-.818094.818079-.818094.451075 0 .818051.367075.818051.818094.00000394.451134-.366976.818087-.818051.818083z"/><path id="_450791152" d="m3.28575 6.3038h.255157v-.226177c0-.0334803.0239173-.0621299.0568386-.0681535.141067-.0259016.272697-.0804488.391248-.16222.0275551-.0190276.0647677-.0156535.0884331.00806693l.160043.160051.180413-.180531-.160016-.159929c-.0236772-.0237244-.0270748-.0609331-.00805906-.0885079.0817559-.118512.136331-.250138.162224-.391283.00604724-.0328858.0347402-.0568425.0682244-.0568425l.226157-.00001181v-.255059h-.226157c-.0334803 0-.0621929-.0239685-.0682402-.0568465-.025874-.141154-.0804449-.272776-.162193-.39128-.0190157-.0275906-.015622-.0647953.00804331-.0885197l.160008-.159941-.180406-.180398-.160016.160047c-.0236693.0236024-.0608819.0269843-.088437.00795669-.118528-.0816614-.250173-.136331-.391272-.162102-.032937-.00602362-.0568504-.0348031-.0568504-.0682835v-.226173h-.255146v.226165c0 .0334764-.0239213.0622677-.0568583.0682913-.141024.0257598-.272654.0804488-.391244.162224-.0275669.0190197-.0647559.0155315-.0884213-.00807087l-.160039-.160055-.180421.180398.16002.160047c.0236772.0236181.0270591.0608307.00805512.0884134-.081748.118504-.136327.250134-.16222.39128-.00604331.032878-.0347441.0568465-.0682362.0568465h-.226146v.255059h.226181c.0334921 0 .0621929.0239764.0682402.0569724.0258661.141028.0804331.272657.162197.391165.0190039.0275669.0156181.0647913-.00804724.0885157l-.160043.159921.180421.180531.160016-.160051c.0236654-.0237205.0608898-.0270945.0884331-.00806693.118516.0817717.25015.136331.391268.16222.0329409.00601969.0568425.034685.0568425.0681654l.00000394.226165zm.324528.138736h-.393886c-.0383189 0-.0693701-.0310669-.0693701-.0693622v-.239177c-.12037-.0283031-.234165-.0755118-.339555-.140787l-.169228.169197c-.0130079.0130079-.0306496.0203661-.0490512.0203661-.0184016-.00001575-.0360433-.00734646-.0490512-.0203543l-.278512-.278445c-.0270945-.0270984-.0270945-.0710472-.00000787-.0981457l.169252-.169209c-.065248-.1055-.112433-.219177-.140772-.33961l-.239224-.00000787c-.038311 0-.0693701-.0309409-.0693701-.0693583v-.393811c0-.0383031.0310591-.0693661.0693701-.0693661h.239185c.0283622-.120437.0755354-.234122.140787-.339618l-.169228-.169213c-.0130079-.0130079-.0203189-.0305866-.0203189-.0490118 0-.0184331.00731102-.0360079.0203189-.0490118l.27852-.278571c.0270866-.0270984.0710157-.0270827.0981024.00001181l.169252.169197c.105429-.0652638.219213-.112354.33952-.140776l.00000394-.239181c0-.0383031.0310551-.0693622.0693661-.0693622l.393882-.00000394c.038311 0 .0693701.0310709.0693701.0693701v.239169c.120358.0284252.234142.0755197.339555.140795l.169232-.16922c.0270827-.0270984.0710039-.0270827.0980906.00001181l.27852.278543c.0270866.0270984.0270866.0709449 0 .0980472l-.16922.169201c.065252.105488.112437.219189.140772.339622h.239193c.0383189 0 .0693661.0310669.0693661.0693661l.00000394.393799c0 .0384252-.0310512.069378-.069374.069378l-.239173-.00000787c-.0283622.120433-.0755394.234244-.140799.339622l.169232.169205c.0130197.0130079.020315.0307126.020315.0490157.00001575.0184134-.00729921.0361299-.020315.0491378l-.27852.278425c-.0270866.0271024-.0710079.0271102-.0980945.00001181l-.169252-.169217c-.105413.0652756-.219209.112492-.339524.140795l.00000394.239173c0 .0382874-.031063.0693701-.0693661.0693661z"/><path id="_450791368" d="m3.46173 5.29242c-.0315039 0-.0600118-.0216732-.0674921-.0537087l-.0969449-.414894c-.00870866-.0373268.0144606-.0745354.0517717-.0833307.0373386-.00867717.0746102.0144567.0833268.0517874l.0969488.414882c.00872047.0373268-.0144646.0746732-.0517638.0833425-.00530709.00131102-.0106181.0019252-.0158465.00192126z"/><path id="_450790528" d="m3.16996 5.27279c-.0149291 0-.0299488-.00481102-.0426299-.014689l-.246846-.192701c-.0168504-.013126-.026689-.0332283-.026689-.0546614-.00001181-.0213307.00983858-.0415512.026689-.0546811l.246846-.192571c.0301929-.0236024.0737874-.0181811.0973543.0119291.0235827.0302205.0182008.0738228-.0120039.0974291l-.176768.13789.176768.138004c.0302047.0234921.0355866.0670945.0120039.0973228-.0136654.0175827-.0340945.0267323-.0547244.0267283z"/><path id="_450791056" d="m3.6567 5.27279c-.0206378 0-.0410669-.00914567-.0547362-.0267283-.023563-.0302323-.0181969-.0738268.0120079-.097311l.17676-.138016-.176756-.137898c-.0302087-.0236024-.0355787-.0671929-.0120118-.0974213.0235709-.0301102.0671654-.0355276.0973583-.0119252l.24685.192563c.0168504.013126.0266969.0333661.026685.054685.00000394.0214291-.00983858.0415433-.026685.0546732l-.24685.192689c-.0126693.0098622-.0277126.0146929-.042622.014689z"/><path id="_450790960" d="m4.92828 4.67725h-.507457c-.038311 0-.069374-.030937-.069374-.0693543.00000394-.0383031.0310591-.069248.0693701-.069248l.507461-.00001575c.301764 0 .54726-.245547.54726-.547346.00000394-.208346-.115756-.395858-.302114-.489433-.0164803-.00818504-.029-.0227598-.0347638-.0402205-.00577165-.0174724-.00432677-.0366142.00400787-.0531102.0390354-.0769606.0588189-.160055.0588189-.247008.00000394-.301811-.245508-.547236-.547276-.547236-.151744-.00000394-.298031.0638268-.401335.175224-.0185591.0199921-.0471142.0272205-.0729961.0185472-.0258543-.00867717-.0442087-.0317953-.0468937-.0588898-.0277598-.280969-.261866-.492685-.544567-.492685-.260201-.00000394-.485902.184862-.536677.439575-.00444488.0222756-.0195315.0410669-.0403819.0500984-.0208583.00902756-.0448346.00734646-.0641535-.00469685-.0862244-.0533504-.185665-.0815276-.287567-.0815276-.30176-.00000394-.547276.245433-.547276.547236 0 .0585276.00920472.116094.0273307.171256.00806693.0244331.00186614.0514213-.0161142.0699685-.0179724.0184173-.0447402.0254094-.0694921.018185-.0503858-.0149449-.102776-.0225236-.155717-.0225236-.301776-.00000787-.547276.245563-.547276.54724 0 .301795.2455.547362.547276.547362l.507449-.00001575c.0383228 0 .0693701.0309646.0693701.0692638 0 .0384094-.0310472.0693661-.0693701.0693661l-.507449-.00001181c-.378272 0-.686016-.307689-.686016-.685965.00000394-.378287.307744-.685976.686016-.685976.0278228-.00000787.0555197.00168898.0829882.00494094-.00514173-.0339724-.00773228-.0684055-.00773228-.103091 0-.37828.307752-.685976.686012-.685976.0970118 0 .192248.0203504.279862.0596142.0937677-.273142.353622-.463059.648917-.463059.31076-.00000394.574685.204252.658394.491965.117189-.0862323.260232-.134165.407398-.134165.378264 0 .686012.307705.686012.685976 0 .0864606-.0156457.169929-.0465787.249055.199327.125004.320634.342024.320634.580717 0 .378264-.30774.685976-.686.685965z"/><path id="_450790864" d="m2.64348 3.32602c-.0241732 0-.0476417-.0126339-.0604094-.0351575-.0188976-.0333701-.00720472-.075748.026122-.0946575.0345039-.0195118.84963-.47474 1.26196-.0981496.0282913.0257717.0302874.0696063.00445669.0979055-.0258425.0282992-.0697047.0303543-.0979961.00446063-.338807-.30928-1.09242.11224-1.09998.116579-.010811.00601181-.0225669.0090315-.0341496.00901969z"/></g></g></svg>