<svg id="Layer_1" enable-background="new 0 0 512 512" viewBox="0 0 512 512" xmlns="http://www.w3.org/2000/svg"><path d="m470.688 13.85h-420.229c-22.86 0-41.459 18.599-41.459 41.459v275.534c0 22.86 18.599 41.459 41.459 41.459h136.349c-.276 26.798-6.781 53.913-14.037 69.896h-28.966c-15.426 0-27.976 12.55-27.976 27.976s12.55 27.976 27.976 27.976h224.39c15.426 0 27.976-12.55 27.976-27.976s-12.55-27.976-27.976-27.976h-29.04c-7.594-16.271-14.515-43.483-15.028-69.896h137.413c22.861 0 41.459-18.599 41.459-41.459v-284.675c.001-17.82-14.494-32.318-32.311-32.318zm-420.229 14h420.228c10.098 0 18.312 8.218 18.312 18.318v243.59h-465.999v-234.449c0-15.141 12.318-27.459 27.459-27.459zm331.712 442.324c0 7.706-6.27 13.976-13.976 13.976h-224.39c-7.707 0-13.976-6.27-13.976-13.976s6.27-13.976 13.976-13.976h224.39c7.706.001 13.976 6.27 13.976 13.976zm-58.295-27.975h-135.898c7.671-19.512 12.575-45.97 12.826-69.896h109.326c.447 23.634 5.701 50.107 13.746 69.896zm137.665-83.897h-411.082c-15.141 0-27.459-12.318-27.459-27.459v-27.085h466v27.085c0 15.141-12.318 27.459-27.459 27.459zm-179.596-27.271c0 3.866-3.134 7-7 7h-37.889c-3.866 0-7-3.134-7-7s3.134-7 7-7h37.889c3.866 0 7 3.134 7 7zm-35.96-68.101c0 7.252-5.879 13.132-13.131 13.132s-13.132-5.879-13.132-13.132c0-7.252 5.879-13.132 13.132-13.132 7.251 0 13.131 5.879 13.131 13.132zm-86.13 0c0 7.252-5.879 13.132-13.131 13.132-7.253 0-13.132-5.879-13.132-13.132 0-7.252 5.879-13.132 13.132-13.132 7.252 0 13.131 5.879 13.131 13.132zm-98.527-190.77 15.581 4.624c7.624 2.264 12.693 8.335 13.559 16.24l13.101 119.572c1.843 16.819 15.993 29.504 32.914 29.504h131.636c3.866 0 7-3.134 7-7s-3.134-7-7-7h-131.637c-9.767 0-17.934-7.32-18.998-17.029l-.636-5.804c43.584-.009 121.667-.083 121.661-.083 10.563 0 18.52-6.994 20.781-18.26l16.048-73.131c.026-.119.049-.239.069-.359.895-5.424-.526-10.815-3.901-14.793-3.632-4.281-9.152-6.639-15.543-6.639h-6.861c-.624-5.351-5.179-9.52-10.695-9.52-3.534 0-4.928-2.703-5.271-3.532-.343-.828-1.269-3.727 1.231-6.226 4.199-4.201 4.199-11.035-.001-15.236l-8.127-8.128c-4.2-4.197-11.034-4.198-15.236.002-2.499 2.499-5.396 1.572-6.225 1.229s-3.533-1.737-3.533-5.271c0-5.94-4.833-10.773-10.774-10.773h-11.491c-5.941 0-10.774 4.833-10.774 10.773 0 3.534-2.704 4.929-3.533 5.271-.829.345-3.726 1.27-6.227-1.231-4.2-4.197-11.035-4.197-15.236.002l-8.126 8.126c-4.199 4.201-4.199 11.035.001 15.237 2.499 2.498 1.573 5.396 1.23 6.225s-1.738 3.532-5.271 3.532c-5.516 0-10.071 4.168-10.695 9.52h-15.91l-.055-.504c-1.478-13.491-10.479-24.272-23.491-28.136l-15.582-4.625c-3.706-1.099-7.602 1.014-8.702 4.719-1.1 3.707 1.013 7.603 4.719 8.704zm72.942 24.071c6.71-1.062 12.291-5.429 14.98-11.923s1.831-13.528-2.162-19.023l3.919-3.92c5.497 3.994 12.53 4.853 19.023 2.162 6.494-2.689 10.861-8.27 11.923-14.979h5.543c1.062 6.71 5.43 12.29 11.923 14.979 6.494 2.688 13.528 1.832 19.023-2.162l3.919 3.92c-3.994 5.496-4.852 12.529-2.162 19.023s8.27 10.86 14.98 11.923v5.543c-6.71 1.062-12.291 5.429-14.98 11.923s-1.832 13.528 2.162 19.024l-3.919 3.919c-5.497-3.994-12.531-4.854-19.024-2.161-6.494 2.689-10.86 8.27-11.923 14.979h-5.542c-1.062-6.716-5.427-12.299-11.919-14.988-6.493-2.691-13.528-1.829-19.028 2.17l-3.919-3.919c3.993-5.496 4.852-12.53 2.162-19.024s-8.27-10.86-14.98-11.923v-5.543zm-13.921 9.771c.624 5.351 5.179 9.52 10.695 9.52 3.534 0 4.928 2.704 5.271 3.532.343.829 1.269 3.728-1.231 6.227-4.199 4.201-4.199 11.035.001 15.237l8.125 8.125c2.035 2.034 4.741 3.155 7.619 3.155s5.584-1.121 7.619-3.155c2.506-2.506 5.402-1.58 6.229-1.239.828.343 3.529 1.737 3.529 5.281 0 5.94 4.833 10.773 10.774 10.773h11.491c5.941 0 10.774-4.833 10.774-10.773 0-3.534 2.704-4.929 3.532-5.272.829-.345 3.727-1.27 6.226 1.23 2.035 2.034 4.741 3.155 7.619 3.155s5.584-1.121 7.619-3.155l8.126-8.126c4.199-4.201 4.199-11.035-.001-15.237-2.499-2.498-1.573-5.396-1.23-6.226.343-.828 1.738-3.532 5.271-3.532 5.516 0 10.071-4.169 10.695-9.52h6.861c2.211 0 3.939.603 4.868 1.696.876 1.033.921 2.342.786 3.307l-16.016 72.983c-.01.046-.02.093-.029.14-.928 4.682-3.304 7.056-7.069 7.056 0 0-79.935.076-123.188.083l-9.342-85.265zm64.377 27.607c19.082 0 34.606-15.524 34.606-34.606 0-19.081-15.524-34.605-34.606-34.605s-34.606 15.523-34.606 34.604c0 19.082 15.524 34.607 34.606 34.607zm0-55.212c11.362 0 20.606 9.243 20.606 20.605s-9.244 20.606-20.606 20.606-20.606-9.244-20.606-20.606 9.244-20.605 20.606-20.605zm114.262-19.504c0-3.866 3.134-7 7-7h134.123c3.866 0 7 3.134 7 7v199.822c0 3.866-3.134 7-7 7h-54.12c-3.866 0-7-3.134-7-7s3.134-7 7-7h47.12v-185.822h-127.123c-3.865 0-7-3.134-7-7zm93.247 70.744-17.764 18.637c-2.667 2.797-7.098 2.903-9.896.236s-2.905-7.098-.237-9.896l6.489-6.808h-30.777v80.994c0 3.866-3.134 7-7 7s-7-3.134-7-7v-87.994c0-3.866 3.134-7 7-7h37.777l-6.49-6.806c-2.667-2.798-2.561-7.229.237-9.896s7.229-2.561 9.896.236l17.764 18.637c2.578 2.704 2.578 6.956.001 9.66z"/></svg>