<svg height="488pt" viewBox="0 -19 488 487" width="488pt" xmlns="http://www.w3.org/2000/svg"><path d="m144 128.5c-39.765625 0-72 32.234375-72 72s32.234375 72 72 72 72-32.234375 72-72c-.042969-39.746094-32.253906-71.957031-72-72zm0 128c-30.929688 0-56-25.070312-56-56s25.070312-56 56-56 56 25.070312 56 56c-.039062 30.910156-25.089844 55.960938-56 56zm0 0"/><path d="m144 160.5c-22.089844 0-40 17.910156-40 40s17.910156 40 40 40 40-17.910156 40-40c-.027344-22.082031-17.917969-39.972656-40-40zm0 64c-13.253906 0-24-10.746094-24-24s10.746094-24 24-24 24 10.746094 24 24-10.746094 24-24 24zm0 0"/><path d="m472 272.5h-56c-2.121094 0-4.15625.84375-5.65625 2.34375l-2.34375 2.34375v-45.824219c14.113281-3.589843 23.992188-16.300781 23.992188-30.863281s-9.878907-27.273438-23.992188-30.863281v-49.136719h48c17.671875 0 32-14.328125 32-32s-14.328125-32-32-32c-1.414062 0-2.824219.097656-4.222656.289062-4.835938-8.570312-13.339844-14.445312-23.066406-15.9375-7.410157-17.503906-26.132813-27.359374-44.757813-23.558593-18.625 3.796875-31.992187 20.199219-31.953125 39.207031-17.671875 0-32 14.328125-32 32s14.328125 32 32 32h40v49.136719c-11.203125 2.914062-19.949219 11.660156-22.863281 22.863281h-81.136719v-168c0-13.253906-10.746094-24-24-24h-240c-13.253906 0-24 10.746094-24 24v400c0 13.253906 10.746094 24 24 24h240c13.253906 0 24-10.746094 24-24v-216h81.136719c2.914062 11.203125 11.660156 19.949219 22.863281 22.863281v57.136719h-64c-4.417969 0-8 3.582031-8 8v120c0 4.417969 3.582031 8 8 8h144c4.417969 0 8-3.582031 8-8v-136c0-4.417969-3.582031-8-8-8zm-136-184c0-8.835938 7.164062-16 16-16 2.25.011719 4.472656.503906 6.519531 1.441406 2.902344 1.304688 6.304688.761719 8.660157-1.378906 2.355468-2.140625 3.21875-5.472656 2.195312-8.488281-2.589844-8.238281-.53125-17.238281 5.386719-23.53125 5.921875-6.292969 14.777343-8.902344 23.160156-6.816407 8.386719 2.082032 14.992187 8.53125 17.277344 16.863282.839843 3.726562 4.277343 6.285156 8.089843 6.015625.429688 0 .855469-.066407.75-.105469 7.203126.042969 13.492188 4.890625 15.359376 11.847656.601562 2.207032 2.113281 4.050782 4.15625 5.066406 2.046874 1.019532 4.429687 1.113282 6.550781.261719 5.996093-2.433593 12.871093-1.015625 17.414062 3.59375s5.863281 11.503907 3.339844 17.464844-8.386719 9.816406-14.859375 9.765625h-104c-8.835938 0-16-7.164062-16-16zm-312-72h240c4.417969 0 8 3.582031 8 8v24h-256v-24c0-4.417969 3.582031-8 8-8zm240 416h-240c-4.417969 0-8-3.582031-8-8v-72h256v72c0 4.417969-3.582031 8-8 8zm8-96h-256v-272h256v128h-8v-16c0-4.417969-3.582031-8-8-8h-13.144531c-1.695313-5.253906-3.808594-10.363281-6.320313-15.28125l9.289063-9.285156c3.121093-3.125 3.121093-8.191406 0-11.3125l-33.945313-33.945313c-3.121094-3.121093-8.1875-3.121093-11.3125 0l-9.285156 9.289063c-4.917969-2.511719-10.027344-4.625-15.28125-6.320313v-13.144531c0-4.417969-3.582031-8-8-8h-48c-4.417969 0-8 3.582031-8 8v13.144531c-5.253906 1.695313-10.363281 3.808594-15.28125 6.320313l-9.285156-9.289063c-3.125-3.121093-8.191406-3.121093-11.3125 0l-33.945313 33.945313c-3.121093 3.121094-3.121093 8.1875 0 11.3125l9.289063 9.285156c-2.511719 4.917969-4.625 10.027344-6.320313 15.28125h-13.144531c-4.417969 0-8 3.582031-8 8v48c0 4.417969 3.582031 8 8 8h13.144531c1.695313 5.253906 3.808594 10.363281 6.320313 15.28125l-9.289063 9.285156c-3.121093 3.125-3.121093 8.191406 0 11.3125l33.945313 33.945313c3.121094 3.121093 8.1875 3.121093 11.3125 0l9.285156-9.289063c4.917969 2.511719 10.027344 4.625 15.28125 6.320313v13.144531c0 4.417969 3.582031 8 8 8h48c4.417969 0 8-3.582031 8-8v-13.144531c5.253906-1.695313 10.363281-3.808594 15.28125-6.320313l9.285156 9.289063c3.125 3.121093 8.191406 3.121093 11.3125 0l33.945313-33.945313c3.121093-3.121094 3.121093-8.1875 0-11.3125l-9.289063-9.285156c2.511719-4.917969 4.625-10.027344 6.320313-15.28125h13.144531c4.417969 0 8-3.582031 8-8v-16h8zm-51.023438-81.65625 7.871094 7.878906-22.625 22.625-7.878906-7.871094c-2.589844-2.566406-6.582031-3.074218-9.726562-1.234374-7.0625 4.167968-14.675782 7.320312-22.617188 9.363281-3.53125.910156-6 4.09375-6 7.742187v11.152344h-32v-11.152344c0-3.648437-2.46875-6.832031-6-7.742187-7.941406-2.042969-15.554688-5.195313-22.617188-9.363281-3.144531-1.855469-7.144531-1.347657-9.726562 1.234374l-7.878906 7.871094-22.625-22.625 7.871094-7.878906c2.582031-2.582031 3.089843-6.582031 1.234374-9.726562-4.167968-7.0625-7.320312-14.675782-9.363281-22.617188-.910156-3.53125-4.09375-6-7.742187-6h-11.152344v-32h11.152344c3.648437 0 6.832031-2.46875 7.742187-6 2.042969-7.941406 5.195313-15.554688 9.363281-22.617188 1.855469-3.144531 1.347657-7.144531-1.234374-9.726562l-7.871094-7.878906 22.625-22.625 7.878906 7.871094c2.582031 2.582031 6.582031 3.089843 9.726562 1.234374 7.0625-4.167968 14.675782-7.320312 22.617188-9.363281 3.53125-.910156 6-4.09375 6-7.742187v-11.152344h32v11.152344c0 3.648437 2.46875 6.832031 6 7.742187 7.941406 2.042969 15.554688 5.195313 22.617188 9.363281 3.144531 1.855469 7.144531 1.347657 9.726562-1.234374l7.878906-7.871094 22.625 22.625-7.871094 7.878906c-2.582031 2.582031-3.089843 6.582031-1.234374 9.726562 4.167968 7.0625 7.320312 14.675782 9.363281 22.617188.910156 3.53125 4.09375 6 7.742187 6h11.152344v32h-11.152344c-3.648437 0-6.832031 2.46875-7.742187 6-2.042969 7.941406-5.195313 15.554688-9.363281 22.617188-1.855469 3.144531-1.347657 7.144531 1.234374 9.726562zm163.023438-54.34375c0-8.835938 7.164062-16 16-16s16 7.164062 16 16-7.164062 16-16 16-16-7.164062-16-16zm16 104c2.121094 0 4.15625-.84375 5.65625-2.34375l13.65625-13.65625h44.6875v32h-128v-16zm64 104h-128v-72h128zm0 0"/><path d="m352 352.5h32v16h-32zm0 0"/><path d="m144 368.5c-13.253906 0-24 10.746094-24 24s10.746094 24 24 24 24-10.746094 24-24-10.746094-24-24-24zm0 32c-4.417969 0-8-3.582031-8-8s3.582031-8 8-8 8 3.582031 8 8-3.582031 8-8 8zm0 0"/></svg>