<svg enable-background="new 0 0 520 520" height="512" viewBox="0 0 520 520" width="512" xmlns="http://www.w3.org/2000/svg"><g id="_x37_48_x2C__App_x2C__Coding_x2C__Development_x2C__Mobile"><g><path d="m260 240.001c33.084 0 60-26.916 60-60s-26.916-60-60-60-60 26.916-60 60 26.916 60 60 60zm0-110c27.57 0 50 22.43 50 50s-22.43 50-50 50-50-22.43-50-50 22.43-50 50-50z"/><path d="m275.84 192.775c1.537 2.305 4.643 2.914 6.934 1.387l15-10c2.957-1.972 2.976-6.336 0-8.32l-15-10c-2.298-1.532-5.402-.911-6.934 1.387-1.532 2.297-.911 5.402 1.387 6.934l8.76 5.84-8.76 5.84c-2.298 1.53-2.919 4.634-1.387 6.932z"/><path d="m244.16 192.775c1.532-2.297.911-5.402-1.387-6.934l-8.76-5.84 8.76-5.84c2.298-1.532 2.919-4.636 1.387-6.934-1.531-2.298-4.637-2.919-6.934-1.387l-15 10c-2.962 1.974-2.971 6.34 0 8.32l15 10c2.288 1.526 5.396.923 6.934-1.385z"/><path d="m248.419 214.745c2.615.872 5.449-.538 6.325-3.163l19.999-60c.873-2.62-.542-5.451-3.162-6.325-2.615-.871-5.451.543-6.324 3.163l-20.001 60c-.873 2.62.543 5.452 3.163 6.325z"/><path d="m191.913 334.306 16.164 3.61c1.12 3.917 2.679 7.679 4.657 11.241l-8.876 14.019c-1.251 1.977-.965 4.556.689 6.21l9.071 9.071c1.654 1.653 4.234 1.94 6.21.69l14.025-8.879c3.579 1.982 7.339 3.542 11.235 4.658l3.611 16.166c.511 2.285 2.539 3.91 4.88 3.91h12.841c2.342 0 4.369-1.625 4.88-3.91l3.61-16.164c3.917-1.12 7.679-2.679 11.24-4.657l14.02 8.876c1.978 1.251 4.557.965 6.211-.69l9.07-9.071c1.653-1.654 1.94-4.233.689-6.21l-8.879-14.024c1.983-3.58 3.543-7.341 4.659-11.235l16.166-3.61c2.285-.511 3.91-2.539 3.91-4.88v-12.841c0-2.342-1.625-4.369-3.91-4.88l-16.165-3.611c-1.117-3.895-2.677-7.655-4.659-11.235l8.878-14.025c1.251-1.976.965-4.556-.689-6.21l-9.07-9.07c-1.654-1.655-4.237-1.94-6.215-.686l-14.015 8.897c-3.541-1.969-7.301-3.531-11.237-4.668l-3.613-16.178c-.511-2.285-2.538-3.91-4.88-3.91h-12.841c-2.341 0-4.369 1.625-4.88 3.91l-3.613 16.177c-3.937 1.138-7.697 2.7-11.237 4.669l-14.015-8.897c-1.976-1.254-4.559-.971-6.215.686l-9.071 9.07c-1.654 1.654-1.94 4.234-.689 6.21l8.879 14.025c-1.983 3.579-3.542 7.339-4.659 11.235l-16.166 3.611c-2.285.511-3.91 2.538-3.91 4.88v12.841c-.001 2.34 1.624 4.368 3.909 4.879zm6.09-13.715 15.253-3.406c1.893-.423 3.371-1.902 3.791-3.796 1.093-4.92 3.038-9.611 5.779-13.945 1.033-1.633 1.033-3.715-.001-5.348l-8.376-13.23 3.409-3.408 13.229 8.397c1.641 1.043 3.734 1.038 5.371-.007 4.244-2.71 8.937-4.662 13.95-5.802 1.883-.428 3.351-1.901 3.772-3.785l3.407-15.253h4.828l3.407 15.253c.421 1.884 1.89 3.357 3.772 3.785 5.014 1.14 9.707 3.092 13.95 5.802 1.637 1.045 3.731 1.048 5.371.007l13.228-8.397 3.409 3.408-8.376 13.23c-1.033 1.633-1.034 3.714-.001 5.347 2.742 4.337 4.686 9.029 5.779 13.946.421 1.893 1.898 3.373 3.791 3.796l15.252 3.406v4.828l-15.252 3.407c-1.893.423-3.37 1.901-3.791 3.795-1.093 4.917-3.037 9.609-5.78 13.947-1.032 1.633-1.031 3.714.002 5.346l8.376 13.23-3.412 3.412-13.23-8.376c-1.639-1.037-3.727-1.034-5.359.006-4.286 2.729-8.974 4.67-13.934 5.773-1.893.42-3.372 1.897-3.795 3.791l-3.406 15.252h-4.829l-3.407-15.252c-.423-1.894-1.902-3.371-3.795-3.791-4.919-1.094-9.611-3.038-13.945-5.779-1.633-1.032-3.714-1.033-5.348.001l-13.23 8.376-3.412-3.412 8.376-13.229c1.036-1.637 1.034-3.725-.006-5.359-2.728-4.287-4.67-8.976-5.772-13.935-.42-1.894-1.898-3.372-3.791-3.795l-15.253-3.407v-4.829z"/><path d="m260.015 340.86c9.838 0 17.841-8.004 17.841-17.841 0-9.854-8.003-17.869-17.841-17.869-9.854 0-17.87 8.016-17.87 17.869 0 9.837 8.016 17.841 17.87 17.841zm0-25.71c4.323 0 7.841 3.53 7.841 7.869 0 4.323-3.518 7.841-7.841 7.841-4.339 0-7.87-3.518-7.87-7.841 0-4.338 3.53-7.869 7.87-7.869z"/><path d="m260.015 358.747c19.7 0 35.728-16.027 35.728-35.728 0-19.716-16.027-35.756-35.728-35.756-19.716 0-35.756 16.04-35.756 35.756-.001 19.701 16.039 35.728 35.756 35.728zm0-61.483c14.187 0 25.728 11.554 25.728 25.756 0 14.186-11.541 25.728-25.728 25.728-14.202 0-25.756-11.542-25.756-25.728-.001-14.203 11.554-25.756 25.756-25.756z"/><path d="m260 440.002c-11.028 0-20 8.972-20 20 0 11.027 8.972 20 20 20s20-8.973 20-20c0-11.028-8.972-20-20-20zm0 30c-5.514 0-10-4.486-10-10 0-5.515 4.486-10 10-10s10 4.485 10 10c0 5.514-4.486 10-10 10z"/><path d="m280 55.001h-40.333c-2.761 0-5 2.239-5 5s2.239 5 5 5h40.333c2.762 0 5-2.239 5-5s-2.238-5-5-5z"/><circle cx="77.5" cy="57.5" r="7.5"/><circle cx="467.5" cy="372.5" r="7.5"/><circle cx="452.5" cy="202.5" r="7.5"/><circle cx="417.5" cy="47.5" r="7.5"/><circle cx="422.5" cy="442.5" r="7.5"/><circle cx="62.5" cy="187.5" r="7.5"/><circle cx="97.5" cy="272.5" r="7.5"/><circle cx="87.5" cy="472.5" r="7.5"/><path d="m72.5 360.002c-17.92 0-32.5 14.579-32.5 32.5 0 17.92 14.58 32.5 32.5 32.5s32.5-14.58 32.5-32.5c0-17.921-14.58-32.5-32.5-32.5zm0 55c-12.407 0-22.5-10.094-22.5-22.5 0-12.407 10.093-22.5 22.5-22.5s22.5 10.093 22.5 22.5c0 12.406-10.093 22.5-22.5 22.5z"/><path d="m349.667 25.001h-179.334c-24.997 0-45.333 20.337-45.333 45.334v379.334c0 24.996 20.336 45.333 45.333 45.333h179.334c24.997 0 45.333-20.337 45.333-45.334v-379.333c0-24.997-20.336-45.334-45.333-45.334zm35.333 400.001h-250v-330h250zm-35.333 60h-179.334c-19.483 0-35.333-15.851-35.333-35.333v-14.667h250v14.666c0 19.483-15.851 35.334-35.333 35.334zm35.333-400h-250v-14.667c0-19.483 15.85-35.333 35.333-35.333h179.334c19.482 0 35.333 15.85 35.333 35.333z"/><path d="m450 125.002c16.542 0 30-13.458 30-30s-13.458-30-30-30-30 13.458-30 30 13.458 30 30 30zm0-50c11.028 0 20 8.972 20 20s-8.972 20-20 20-20-8.972-20-20 8.972-20 20-20z"/><path d="m422.5 295.002c-9.649 0-17.5 7.85-17.5 17.5 0 9.649 7.851 17.5 17.5 17.5s17.5-7.851 17.5-17.5-7.851-17.5-17.5-17.5zm0 25c-4.136 0-7.5-3.364-7.5-7.5s3.364-7.5 7.5-7.5 7.5 3.364 7.5 7.5-3.364 7.5-7.5 7.5z"/><path d="m150 415.002h220c2.762 0 5-2.239 5-5v-300c0-2.761-2.238-5-5-5h-220c-2.761 0-5 2.239-5 5v300.001c0 2.76 2.239 4.999 5 4.999zm215-300v110h-25c-2.762 0-5 2.239-5 5s2.238 5 5 5h25v10h-25c-2.762 0-5 2.239-5 5s2.238 5 5 5h25v10.001h-25c-2.762 0-5 2.238-5 5 0 2.761 2.238 5 5 5h25v130h-210v-130h25c2.761 0 5-2.239 5-5 0-2.762-2.239-5-5-5h-25v-10.001h25c2.761 0 5-2.239 5-5s-2.239-5-5-5h-25v-10h25c2.761 0 5-2.239 5-5s-2.239-5-5-5h-25v-110z"/></g></g></svg>