<svg id="Layer_1" enable-background="new 0 0 24 24" height="24" viewBox="0 0 24 24" width="24" xmlns="http://www.w3.org/2000/svg"><g><path d="m19.7.5h-15.4c-2.1 0-3.8 1.7-3.8 3.8v15.4c0 2.1 1.7 3.8 3.8 3.8h15.4c2.1 0 3.8-1.7 3.8-3.8v-15.4c0-2.1-1.7-3.8-3.8-3.8zm-7.3 4.6c.6-.8 1.7-1.3 2.6-1.4.2 0 .5.2.5.4.1 1-.2 2-.9 2.8-.6.9-1.6 1.4-2.5 1.4-.1 0-.1 0-.2 0-.2 0-.4-.2-.4-.4-.1-1.1.4-2.2.9-2.8zm5.8 11c-.1.3-.4 1.2-1 2.2-.6.9-1.3 2-2.6 2-.6 0-1-.2-1.3-.3s-.6-.3-1.1-.3-.8.1-1.1.3c-.3.1-.7.3-1.2.3h-.1c-1.2 0-2-1.2-2.6-2-1.4-2.1-2.2-5.5-.9-7.8.7-1.2 2-2 3.4-2.1.6 0 1.2.2 1.7.4.3.1.5.2.7.2.1 0 .4-.1.7-.2.6-.2 1.3-.5 2.1-.4.6 0 2 .2 3 1.6.1.2.1.5-.1.7-.3.2-1.3 1-1.3 2.3 0 1.7 1.3 2.4 1.6 2.5.1.1.2.3.1.6z"/></g></svg>