<svg id="Capa_1" enable-background="new 0 0 462.769 462.769" height="512" viewBox="0 0 462.769 462.769" width="512" xmlns="http://www.w3.org/2000/svg"><g><g id="_x32_84_x2C__Conference_x2C__Help_x2C__Support_x2C__Call"><g><path d="m457.847 381.538h-22.806c5.039-5.72 8.036-13.194 8.036-21.169v-241.232c0-17.644-14.355-32-32-32h-126.98c-8.742-17.198-26.601-29.017-47.18-29.017h-15.603c-20.578 0-38.437 11.818-47.18 29.017h-122.441c-17.644 0-32 14.356-32 32v241.232c0 7.975 2.997 15.45 8.036 21.169h-22.806c-2.719 0-4.923 2.204-4.923 4.923 0 35.29 28.71 64 64 64h334.769c35.29 0 64-28.71 64-64 .001-2.72-2.203-4.923-4.922-4.923zm-201.02-168.311v-2.975c11.556-4.712 21.082-13.393 26.878-24.346l16.983-1.307c2.564-.198 4.545-2.336 4.545-4.908v-19.692c0-2.719-2.204-4.923-4.923-4.923s-4.923 2.205-4.923 4.923v15.134l-7.591.584c2.867-10.067 1.787-16.936 2.027-23.126 8.503-.109 15.389-7.052 15.389-15.58v-1.628h88.635v-.001 9.846h-29.538c-2.719 0-4.923 2.205-4.923 4.923 0 2.719 2.204 4.923 4.923 4.923h29.538v9.846h-39.385c-2.72 0-4.923 2.205-4.923 4.923s2.204 4.923 4.923 4.923h39.385v9.846h-49.231c-2.72 0-4.923 2.205-4.923 4.923 0 2.719 2.204 4.923 4.923 4.923h49.231v9.846h-59.077c-2.72 0-4.923 2.205-4.923 4.923s2.204 4.923 4.923 4.923h59.077v128h-18.928v-10.465c0-23.339-13.654-62.955-38.342-73.537l-41.338-17.716c-7.37-3.158-14.224-7.376-20.368-12.537-8.948-7.521-10.692-10.994-12.623-13.251-.455-.371-1.329-.986-2.593-1.31-1.224-.311-2.254-.206-2.828-.107zm72.014 90.457c-2.719 0-4.923 2.204-4.923 4.923v33.547h-190.196v-33.547c0-2.72-2.205-4.923-4.923-4.923s-4.923 2.204-4.923 4.923v33.547h-30.337v-10.465c0-23.405 14.142-56.673 32.375-64.487l41.336-17.715c5.789-2.48 11.299-5.554 16.451-9.163l17.537 39.505c1.51 3.403 6.131 3.967 8.409.996l3.195-4.172v20.414c0 9.078 7.386 16.464 16.465 16.464 9.078 0 16.464-7.386 16.464-16.464v-19.27l2.164 2.948c2.207 3.005 6.849 2.563 8.432-.837l18.457-39.655c5.176 3.635 10.708 6.737 16.538 9.234l41.337 17.715c18.233 7.815 32.375 41.083 32.375 64.487v10.465h-31.309v-33.547c-.001-2.72-2.204-4.923-4.924-4.923zm-132.736-88.745c-3.963 5.451-7.585 9.159-13.841 14.171-5.757 4.612-12.113 8.421-18.891 11.326l-41.337 17.715c-24.689 10.582-38.344 50.199-38.344 73.538v10.465h-14.769v-128.001h59.077c2.719 0 4.923-2.205 4.923-4.923s-2.205-4.923-4.923-4.923h-59.077v-9.846h49.231c2.719 0 4.923-2.205 4.923-4.923 0-2.719-2.205-4.923-4.923-4.923h-49.231v-9.846h39.385c2.719 0 4.923-2.205 4.923-4.923s-2.205-4.923-4.923-4.923h-39.385v-9.846h29.538c2.719 0 4.923-2.205 4.923-4.923 0-2.719-2.205-4.923-4.923-4.923h-29.538v-9.846h84.101v1.628c0 8.528 6.885 15.47 15.388 15.58v8.66c0 21.906 13.384 40.742 32.404 48.768v2.963c-.528-.02-1.444.015-2.48.426-1.134.447-1.863 1.132-2.231 1.529zm-27.693-72.187c-3.074-.107-5.541-2.641-5.541-5.74v-7.52c0-3.099 2.467-5.633 5.541-5.74zm98.454 91.26-15.917 34.2-15.173-20.665c1.402-1.402 1.667-1.667 22.299-22.3 2.8 3.322 5.568 5.98 8.791 8.765zm-66.329-8.763 22.238 22.237-15.903 20.766-15.168-34.17c3.13-2.678 5.972-5.43 8.833-8.833zm22.151 38.544 6.536-8.534 6.7 9.125v32.68c0 3.648-2.969 6.618-6.618 6.618-3.65 0-6.619-2.97-6.619-6.618zm24.291-41.374-17.673 17.674-18.645-18.645v-8.372c3.442.707 7.006 1.078 10.654 1.078h15.603c3.44 0 6.802-.342 10.062-.972zm48.383-85.409c0 3.1-2.468 5.634-5.542 5.74v-18.999c3.074.106 5.542 2.641 5.542 5.74zm-74.048-69.042h15.603c23.741 0 43.057 19.315 43.057 43.056v50.226c0 5.381-1.001 10.53-2.812 15.284l-41.232 3.171c-2.711.209-4.739 2.576-4.531 5.286.199 2.583 2.356 4.546 4.903 4.546.347 0-1.716.141 35.214-2.694-7.823 10.549-20.451 17.463-34.599 17.463h-15.603c-23.741 0-43.056-19.315-43.056-43.056 0-12.51 0-41.767 0-50.226 0-23.742 19.315-43.056 43.056-43.056zm-191.775 292.4v-241.231c0-12.216 9.938-22.154 22.154-22.154h118.625c-2.41 8.747-1.811 15.169-1.906 16.928-7.138.093-13.12 5.005-14.86 11.625h-89.552c-2.719 0-4.923 2.205-4.923 4.923v216.616c0 2.719 2.205 4.923 4.923 4.923h334.769c2.72 0 4.923-2.205 4.923-4.923v-216.614c0-2.719-2.204-4.923-4.923-4.923h-94.089c-1.741-6.622-7.722-11.533-14.861-11.625-.091-1.681.51-8.166-1.906-16.928h123.164c12.215 0 22.154 9.938 22.154 22.154v241.231c0 9.707-6.415 18.335-15.65 21.169h-141.888c-2.719 0-4.923 2.204-4.923 4.923v14.769h-78.769v-14.77c0-2.719-2.205-4.923-4.923-4.923h-141.891c-9.234-2.836-15.648-11.462-15.648-21.17zm369.231 80.247h-334.77c-28.202 0-51.438-21.667-53.932-49.231h172.086v14.769c0 2.719 2.205 4.923 4.923 4.923h88.615c2.72 0 4.923-2.205 4.923-4.923v-14.769h172.085c-2.493 27.563-25.728 49.231-53.93 49.231z"/><path d="m88.616 61.539c10.858 0 19.692-8.834 19.692-19.692s-8.834-19.692-19.692-19.692-19.692 8.834-19.692 19.692c-.001 10.857 8.833 19.692 19.692 19.692zm0-29.54c5.429 0 9.846 4.417 9.846 9.846s-4.417 9.846-9.846 9.846-9.846-4.417-9.846-9.846 4.417-9.846 9.846-9.846z"/><path d="m381.539 66.462c14.93 0 27.077-12.147 27.077-27.077 0-14.931-12.147-27.077-27.077-27.077s-27.077 12.146-27.077 27.077c0 14.929 12.147 27.077 27.077 27.077zm0-44.309c9.501 0 17.231 7.73 17.231 17.231s-7.73 17.231-17.231 17.231-17.231-7.73-17.231-17.231 7.73-17.231 17.231-17.231z"/><circle cx="435.693" cy="63.998" r="7.385"/><circle cx="322.462" cy="59.074" r="7.385"/><circle cx="224" cy="22.152" r="7.385"/><circle cx="135.385" cy="59.074" r="7.385"/><circle cx="36.923" cy="44.306" r="7.385"/></g></g></g></svg>