<svg id="Layer_5" enable-background="new 0 0 64 64" height="512" viewBox="0 0 64 64" width="512" xmlns="http://www.w3.org/2000/svg"><g><path d="m50 6c-4.411 0-8 3.589-8 8s3.589 8 8 8 8-3.589 8-8-3.589-8-8-8zm0 14c-3.309 0-6-2.691-6-6s2.691-6 6-6 6 2.691 6 6-2.691 6-6 6z"/><path d="m50 10c-2.206 0-4 1.794-4 4s1.794 4 4 4 4-1.794 4-4-1.794-4-4-4zm0 6c-1.103 0-2-.897-2-2s.897-2 2-2 2 .897 2 2-.897 2-2 2z"/><path d="m63 17.708v-7.416l-1.826-.644c-.062-.157-.127-.314-.196-.471l.836-1.749-5.242-5.242-1.749.836c-.156-.069-.313-.135-.471-.196l-.644-1.826h-7.416l-.644 1.826c-.157.062-.314.127-.471.196l-1.749-.836-5.242 5.242.836 1.749c-.069.156-.135.313-.196.471l-1.826.644v2.708h-17.142c-.447-1.721-1.999-3-3.858-3-2.206 0-4 1.794-4 4 0 1.859 1.279 3.411 3 3.858v11.142h-11c-1.654 0-3 1.346-3 3v4c0 1.302.839 2.402 2 2.816v2.369c-1.161.413-2 1.513-2 2.815v4c0 1.302.839 2.402 2 2.816v2.369c-1.161.413-2 1.513-2 2.815v4c0 1.654 1.346 3 3 3h24c1.654 0 3-1.346 3-3v-4c0-1.302-.839-2.402-2-2.816v-2.369c1.161-.414 2-1.514 2-2.816v-1h6v7c0 1.654 1.346 3 3 3h3v2h-2v2h18v-2h-2v-2h3c1.654 0 3-1.346 3-3v-13.999c0-1.654-1.346-3-3-3h-9v-10h2.708l.644-1.826c.157-.062.314-.127.471-.196l1.749.836 5.242-5.242-.836-1.749c.069-.156.135-.313.196-.471zm-49-3.708c0-1.103.897-2 2-2s2 .897 2 2-.897 2-2 2-2-.897-2-2zm-11 18c0-.552.448-1 1-1h24c.552 0 1 .448 1 1v4c0 .552-.448 1-1 1h-24c-.552 0-1-.448-1-1zm24 7v2h-22v-2zm2 21c0 .552-.448 1-1 1h-24c-.552 0-1-.448-1-1v-4c0-.552.448-1 1-1h24c.552 0 1 .448 1 1zm-24-7v-2h22v2zm24-5c0 .552-.448 1-1 1h-24c-.552 0-1-.448-1-1v-4c0-.552.448-1 1-1h24c.552 0 1 .448 1 1zm8-8v5h-6v-1c0-1.302-.839-2.402-2-2.816v-2.369c1.161-.414 2-1.514 2-2.816v-4c0-1.654-1.346-3-3-3h-11v-11.141c1.399-.364 2.495-1.459 2.858-2.858h17.142v2.708l1.826.644c.062.157.127.314.196.471l-.836 1.749 5.242 5.242 1.749-.836c.156.069.313.135.471.196l.644 1.826h2.708v10h-9c-1.654 0-3 1.346-3 3zm18 19h-10v-2h10zm6-5c0 .552-.448 1-1 1h-20c-.552 0-1-.448-1-1v-1h22zm-1-15c.552 0 1 .448 1 1v11h-22v-11c0-.552.448-1 1-1zm1-22.708-1.393.491-.156.459c-.13.382-.291.767-.477 1.145l-.214.436.639 1.335-3.242 3.242-1.335-.639-.436.214c-.378.186-.763.347-1.145.477l-.459.156-.49 1.392h-4.584l-.491-1.393-.459-.156c-.382-.13-.767-.291-1.145-.477l-.436-.214-1.335.639-3.242-3.242.639-1.335-.214-.436c-.186-.378-.347-.763-.477-1.145l-.156-.459-1.392-.49v-4.584l1.393-.491.156-.459c.13-.382.291-.767.477-1.145l.214-.436-.639-1.335 3.242-3.242 1.335.639.436-.214c.378-.186.763-.347 1.145-.477l.459-.156.49-1.392h4.584l.491 1.393.459.156c.382.13.767.291 1.145.477l.436.214 1.335-.639 3.242 3.242-.639 1.335.214.436c.186.378.347.763.477 1.145l.156.459 1.392.49z"/><path d="m5 33h2v2h-2z"/><path d="m13 33h2v2h-2z"/><path d="m9 33h2v2h-2z"/><path d="m13 57h2v2h-2z"/><path d="m5 57h2v2h-2z"/><path d="m9 57h2v2h-2z"/><path d="m25 45h2v2h-2z"/><path d="m21 45h2v2h-2z"/><path d="m17 45h2v2h-2z"/></g></svg>