<svg id="Layer_1" enable-background="new 0 0 512 512" viewBox="0 0 512 512" xmlns="http://www.w3.org/2000/svg"><path d="m488.581 176.477c0-28.474-10.833-56.903-29.721-77.999-18.255-20.39-42.056-32.321-67.594-34.03-10.114-37.125-44.11-63.448-83.144-63.448-18.922 0-37.177 6.206-52.122 17.572-14.944-11.366-33.198-17.572-52.121-17.572-39.201 0-73.313 26.539-83.27 63.91-25.779 3.537-49.502 15.889-67.314 35.172-19.266 20.855-29.876 47.986-29.876 76.395 0 27.937 10.076 54.263 28.524 74.91-11.521 15.093-17.793 33.544-17.793 52.707 0 31.579 17.233 60.608 44.473 75.883-2.049 6.737-3.084 13.734-3.084 20.886 0 39.596 32.214 71.81 71.811 71.81 1.184 0 2.372-.029 3.561-.089 12.132 23.521 36.304 38.416 63.124 38.416 15.174 0 29.836-4.838 41.965-13.729 12.129 8.891 26.792 13.729 41.966 13.729 26.814 0 50.989-14.896 63.124-38.415 1.182.058 2.37.087 3.562.087 39.596 0 71.81-32.214 71.81-71.81 0-7.151-1.082-14.173-3.128-20.86 27.264-15.27 44.518-44.316 44.518-75.908 0-19.162-6.272-37.613-17.794-52.708 18.447-20.647 28.523-46.973 28.523-74.909zm-209.831-33.94c14.844 2.96 28.768 8.732 41.385 17.153 3.174 2.119 7.4 1.7 10.099-.997l11.604-11.604 23.073 23.072-11.605 11.605c-2.697 2.697-3.114 6.924-.997 10.098 8.426 12.625 14.196 26.548 17.153 41.383.746 3.742 4.03 6.437 7.846 6.437h16.4v32.629h-16.4c-3.814 0-7.099 2.693-7.846 6.435-2.961 14.846-8.732 28.77-17.153 41.385-2.117 3.173-1.7 7.4.997 10.099l11.605 11.604-23.072 23.073-11.606-11.605c-2.696-2.696-6.922-3.114-10.097-.997-12.626 8.425-26.549 14.196-41.385 17.153-3.741.746-6.436 4.03-6.436 7.846v16.4h-8.315v-54.332c42.449-4.042 75.767-39.886 75.767-83.376s-33.317-79.334-75.767-83.376v-54.33h8.314v16.399c0 3.816 2.695 7.1 6.436 7.846zm-14.75 46.183c33.607 3.973 59.767 32.62 59.767 67.279s-26.159 63.306-59.767 67.279zm-16 294.549c-9.666 7.587-21.597 11.731-33.965 11.731-22.33 0-42.292-13.327-50.856-33.953-1.252-3.014-4.188-4.932-7.385-4.932-.349 0-.7.022-1.053.069-2.447.323-4.935.487-7.392.487-30.774 0-55.811-25.036-55.811-55.81 0-7.531 1.473-14.835 4.378-21.709 1.688-3.996-.116-8.61-4.067-10.401-25.331-11.478-41.699-36.857-41.699-64.658 0-17.679 6.541-34.614 18.417-47.687 2.888-3.178 2.751-8.067-.308-11.08-18.599-18.312-28.841-42.764-28.841-68.851 0-49.801 38.822-92.088 88.384-96.271 3.567-.301 6.5-2.936 7.181-6.451 6.37-32.885 35.344-56.753 68.896-56.753 16.123 0 31.656 5.518 44.121 15.608v120.213h-22.689l-16.676-33.558c6.091-5.479 9.928-13.415 9.928-22.233 0-16.493-13.418-29.91-29.91-29.91s-29.909 13.417-29.909 29.91c0 16.492 13.417 29.91 29.909 29.91 1.935 0 3.826-.191 5.66-.544l18.875 37.986c1.352 2.72 4.127 4.44 7.164 4.44h27.648v26.704h-54.079l-20.061-18.933c2.21-4.17 3.467-8.918 3.467-13.956 0-16.493-13.418-29.91-29.91-29.91s-29.91 13.417-29.91 29.91c0 16.492 13.418 29.91 29.91 29.91 5.655 0 10.948-1.578 15.462-4.316l22.372 21.114c1.485 1.401 3.449 2.182 5.491 2.182h57.258v36.473h-71.768c-3.508-12.619-15.094-21.91-28.815-21.91-16.492 0-29.91 13.417-29.91 29.91 0 16.492 13.418 29.91 29.91 29.91 13.721 0 25.307-9.291 28.815-21.91h71.768v36.475h-57.258c-2.042 0-4.006.78-5.491 2.182l-22.372 21.114c-4.515-2.738-9.807-4.315-15.462-4.315-16.492 0-29.91 13.417-29.91 29.909s13.418 29.91 29.91 29.91 29.91-13.418 29.91-29.91c0-5.038-1.258-9.786-3.467-13.956l20.061-18.934h54.079v26.704h-27.647c-3.037 0-5.812 1.72-7.164 4.44l-18.875 37.986c-1.834-.353-3.725-.544-5.66-.544-16.492 0-29.909 13.418-29.909 29.91s13.417 29.91 29.909 29.91 29.91-13.418 29.91-29.91c0-8.818-3.838-16.754-9.929-22.234l16.676-33.558h22.689zm-59.347-372.33c-7.67 0-13.909-6.24-13.909-13.91s6.239-13.91 13.909-13.91 13.91 6.24 13.91 13.91-6.24 13.91-13.91 13.91zm-41.236 65.606c-7.67 0-13.91-6.24-13.91-13.91s6.24-13.91 13.91-13.91 13.91 6.24 13.91 13.91-6.24 13.91-13.91 13.91zm13.91 79.455c0 7.67-6.24 13.91-13.91 13.91s-13.91-6.24-13.91-13.91 6.24-13.91 13.91-13.91 13.91 6.24 13.91 13.91zm0 93.364c0 7.67-6.24 13.91-13.91 13.91s-13.91-6.24-13.91-13.91 6.24-13.909 13.91-13.909 13.91 6.239 13.91 13.909zm41.236 65.607c0 7.67-6.24 13.91-13.91 13.91s-13.909-6.24-13.909-13.91 6.239-13.91 13.909-13.91 13.91 6.24 13.91 13.91zm259.288-110.877c0 25.229-13.483 48.469-34.913 61.13-6.124-10.699-14.976-19.842-25.896-26.273-3.807-2.243-8.712-.974-10.953 2.834-2.242 3.807-.974 8.711 2.834 10.953 16.986 10.004 27.538 28.444 27.538 48.125 0 30.773-25.036 55.81-55.81 55.81-17.066 0-32.973-7.662-43.639-21.021-2.757-3.454-7.789-4.018-11.244-1.261-3.452 2.757-4.017 7.791-1.26 11.243 9.346 11.704 21.819 20.009 35.764 24.114-10.007 15.595-27.301 25.252-46.306 25.252-12.372 0-24.299-4.156-33.966-11.748v-73.545h16.314c4.418 0 8-3.582 8-8v-18.005c12.377-3.116 24.147-7.996 35.126-14.562l12.741 12.74c3.123 3.123 8.188 3.124 11.313-.001l34.386-34.386c3.124-3.125 3.124-8.189 0-11.314l-12.739-12.738c6.563-10.975 11.441-22.743 14.56-35.127h18.006c4.418 0 8-3.582 8-8v-48.629c0-4.418-3.582-8-8-8h-18.005c-3.116-12.377-7.995-24.148-14.562-35.126l12.74-12.74c1.5-1.5 2.343-3.535 2.343-5.657s-.843-4.157-2.344-5.657l-34.386-34.386c-3.125-3.124-8.19-3.124-11.313 0l-12.738 12.738c-10.976-6.564-22.745-11.443-35.128-14.561v-18.004c0-4.418-3.582-8-8-8h-16.314v-69.676c12.466-10.091 27.999-15.616 44.122-15.616 30.413 0 57.069 19.618 66.531 47.783-23.509 2.541-45.438 13.824-62.604 32.409-2.997 3.246-2.797 8.307.449 11.305 3.244 2.999 8.306 2.797 11.305-.448 16.567-17.937 38.255-27.814 61.067-27.814 47.544 0 87.711 44.074 87.711 96.243 0 26.086-10.242 50.538-28.841 68.85-3.059 3.013-3.195 7.902-.308 11.08 11.878 13.071 18.419 30.007 18.419 47.686z"/></svg>