<svg id="Layer_1" enable-background="new 0 0 512 512" height="512" viewBox="0 0 512 512" width="512" xmlns="http://www.w3.org/2000/svg"><path d="m69.326 98.505h18.423v35.165c0 13.596 11.061 24.657 24.657 24.657h100.013c13.596 0 24.657-11.061 24.657-24.657v-35.165h18.423c8.703 0 15.784-7.081 15.784-15.785v-30.104c0-8.703-7.081-15.784-15.784-15.784h-18.423v-3.175c0-13.596-11.061-24.657-24.657-24.657h-100.013c-13.596 0-24.657 11.061-24.657 24.657v3.175h-18.423c-8.704 0-15.784 7.081-15.784 15.784v30.105c0 8.703 7.081 15.784 15.784 15.784zm186.173-47.673c.967 0 1.784.817 1.784 1.784v30.105c0 .967-.817 1.785-1.784 1.785h-18.423v-33.674zm-153.75-17.175c0-5.876 4.781-10.657 10.657-10.657h100.013c5.876 0 10.657 4.781 10.657 10.657v100.013c0 5.876-4.781 10.657-10.657 10.657h-100.013c-5.876 0-10.657-4.781-10.657-10.657zm-34.207 18.959c0-.967.817-1.784 1.784-1.784h18.423v33.673h-18.423c-.967 0-1.784-.817-1.784-1.785zm114.068 15.052c0-7.588 6.151-13.739 13.739-13.739s13.739 6.151 13.739 13.739-6.151 13.739-13.739 13.739-13.739-6.151-13.739-13.739zm-65.872 0c0-7.588 6.151-13.739 13.739-13.739s13.739 6.151 13.739 13.739-6.151 13.739-13.739 13.739-13.739-6.151-13.739-13.739zm29.106 38.728h35.138c3.866 0 7 3.134 7 7s-3.134 7-7 7h-35.138c-3.866 0-7-3.134-7-7s3.134-7 7-7zm173.08 268.708c9.919 0 19.71-2.602 28.531-7.694 13.243-7.646 22.716-19.991 26.674-34.762 8.17-30.491-9.99-61.944-40.481-70.115-30.488-8.168-61.944 9.99-70.115 40.481-8.17 30.491 9.99 61.944 40.481 70.114 4.933 1.322 9.938 1.976 14.91 1.976zm11.101-99.047c23.034 6.172 36.753 29.934 30.581 52.968-2.99 11.158-10.146 20.484-20.15 26.26-9.513 5.491-20.517 7.141-31.17 4.719 4.995-7.146 7.531-14.94 7.531-23.281 0-20.799-4.071-40.863-12.089-59.757 4.484-1.555 9.247-2.388 14.114-2.388 3.694 0 7.449.478 11.183 1.479zm-52.969 30.581c2.543-9.489 8.075-17.392 15.307-22.98 6.939 16.801 10.453 34.615 10.453 53.066 0 6.388-2.273 12.239-6.92 17.773-15.68-9.82-23.872-29.079-18.84-47.859zm26.865 120.411c2.383 0 4.734-.625 6.854-1.848 3.182-1.837 5.458-4.803 6.409-8.353 2.005-7.484 8.115-10.861 13.165-11.526 5.047-.66 11.826 1.016 15.701 7.726 1.836 3.182 4.803 5.457 8.352 6.408 3.551.951 7.255.463 10.437-1.374l17.809-10.282c3.182-1.837 5.458-4.803 6.409-8.353.951-3.549.463-7.255-1.374-10.437-3.874-6.71-1.941-13.419 1.16-17.46 3.101-4.04 9.081-7.645 16.564-5.638 3.55.952 7.257.463 10.438-1.375 3.181-1.837 5.457-4.803 6.407-8.352l5.322-19.863c.951-3.548.463-7.254-1.373-10.436-1.836-3.183-4.803-5.459-8.353-6.41-7.484-2.005-10.861-8.115-11.526-13.165s1.016-11.827 7.727-15.701c6.567-3.792 8.826-12.221 5.034-18.789l-10.283-17.81c-1.836-3.181-4.803-5.457-8.352-6.408-3.549-.952-7.255-.463-10.437 1.374-6.711 3.874-13.42 1.941-17.46-1.16-4.041-3.101-7.644-9.08-5.638-16.564 1.963-7.326-2.4-14.882-9.726-16.846l-19.864-5.322c-7.327-1.961-14.881 2.401-16.845 9.726-2.005 7.484-8.115 10.861-13.165 11.526-5.048.666-11.826-1.016-15.701-7.726-1.836-3.182-4.803-5.457-8.352-6.408-3.549-.949-7.255-.463-10.437 1.374l-7.616 4.397c-10.036-8.915-21.071-16.391-32.833-22.32 26.327-19.296 58.924-29.555 92.927-27.957l-16.013 16.014c-2.733 2.734-2.733 7.166 0 9.899s7.166 2.733 9.899 0l26.5-26.5c2.733-2.734 2.733-7.166 0-9.899l-26.5-26.5c-2.733-2.733-7.166-2.733-9.899 0-2.733 2.734-2.733 7.166 0 9.899l13.014 13.014c-29.082-.606-58.178 6.78-83.58 21.448-7.289 4.209-14.204 8.987-20.699 14.253-17.244-6.564-35.698-10.006-54.609-10.006-84.593.002-153.414 68.818-153.414 153.405 0 14.812 8.276 28.274 23.935 38.929 23.487 15.982 64.465 26.313 112.428 28.345 5.618.238 11.23.355 16.823.355 6.876 0 13.712-.182 20.459-.529 17.999 28.266 44.662 50.43 75.737 62.802.85.338 1.726.499 2.587.499 2.782 0 5.414-1.67 6.505-4.413 1.43-3.592-.322-7.663-3.914-9.093-26.968-10.738-49.202-28.675-65.059-50.939 25.083-2.342 48.273-7.088 66.776-13.861 3.525 3.291 6.286 8.818 4.472 15.586-1.964 7.325 2.398 14.882 9.725 16.847l19.863 5.322c1.186.318 2.389.475 3.584.475zm-105.309-109.574-26.5-26.5c-2.733-2.733-7.166-2.733-9.899 0l-26.5 26.5c-2.733 2.734-2.733 7.166 0 9.899s7.166 2.733 9.899 0l13.014-13.014c-.547 26.199 5.412 52.389 17.314 75.895-52.499 1.655-106.69-7.506-134.129-26.177-11.818-8.042-17.811-17.245-17.811-27.354 0-76.867 62.54-139.403 139.413-139.403 14.685 0 29.067 2.281 42.718 6.665-15.568 15.416-27.953 33.949-36.095 54.396-1.43 3.592.322 7.663 3.914 9.093.85.338 1.726.498 2.587.498 2.782 0 5.414-1.67 6.505-4.412 8.456-21.238 21.375-39.538 37.353-54.102 11.53 5.168 22.371 11.925 32.232 20.155-4.671 4.258-5.936 11.345-2.648 17.037 3.874 6.71 1.941 13.419-1.16 17.46-3.101 4.042-9.08 7.646-16.564 5.638-3.548-.95-7.256-.463-10.438 1.375-3.181 1.837-5.457 4.803-6.407 8.351l-5.323 19.864c-1.962 7.326 2.401 14.882 9.726 16.844 7.484 2.006 10.862 8.116 11.526 13.166.665 5.049-1.016 11.826-7.725 15.7-6.568 3.792-8.827 12.22-5.035 18.79l10.283 17.81c.541.937 1.184 1.775 1.895 2.531-12.554 2.542-25.939 4.297-39.635 5.29-13.075-23.309-19.735-50.24-18.423-78.108l16.014 16.013c2.733 2.733 7.166 2.733 9.899 0 2.734-2.735 2.734-7.167 0-9.9zm75.033 59.246c-9.666-7.416-22.204-8.284-32.78-2.285l-10.038-17.386c10.474-6.155 15.985-17.446 14.394-29.529-1.591-12.082-9.837-21.562-21.546-24.796l5.196-19.39c11.756 3.053 23.638-1.033 31.057-10.701 7.418-9.668 8.291-22.203 2.299-32.77l17.386-10.038c6.154 10.473 17.444 15.984 29.528 14.395 12.082-1.591 21.562-9.837 24.796-21.546l19.39 5.196c-3.053 11.757 1.033 23.639 10.701 31.057s22.203 8.292 32.77 2.299l10.039 17.386c-10.473 6.154-15.985 17.446-14.395 29.528 1.591 12.082 9.836 21.562 21.545 24.796l-5.196 19.39c-11.757-3.054-23.639 1.033-31.056 10.701-7.419 9.669-8.292 22.203-2.299 32.77l-17.386 10.038c-6.155-10.474-17.45-15.988-29.529-14.395-12.082 1.591-21.562 9.836-24.796 21.546l-19.39-5.195c3.058-11.769-1.025-23.655-10.69-31.071zm193.98.559c-13.219 33.199-37.612 61.365-68.685 79.308-25.404 14.669-54.508 22.051-83.581 21.449l13.014 13.014c2.733 2.733 2.733 7.166 0 9.899-1.367 1.367-3.158 2.05-4.95 2.05s-3.583-.684-4.95-2.05l-26.5-26.5c-2.733-2.733-2.733-7.166 0-9.899l26.5-26.5c2.733-2.733 7.166-2.733 9.899 0s2.733 7.166 0 9.899l-16.013 16.013c61.786 2.915 118.957-33.341 142.258-91.861 1.43-3.592 5.502-5.342 9.093-3.914 3.593 1.43 5.346 5.5 3.915 9.092zm34.325-59.093-26.5 26.5c-1.367 1.367-3.158 2.05-4.95 2.05s-3.583-.684-4.95-2.05l-26.5-26.5c-2.733-2.733-2.733-7.166 0-9.899s7.166-2.733 9.899 0l16.013 16.013c2.909-61.781-33.345-118.959-91.861-142.258-3.592-1.43-5.344-5.501-3.914-9.093s5.5-5.342 9.093-3.914c33.199 13.219 61.365 37.612 79.308 68.685 14.669 25.403 22.055 54.492 21.448 83.581l13.014-13.014c2.733-2.733 7.165-2.733 9.899 0s2.734 7.165.001 9.899z"/></svg>