<svg enable-background="new 0 0 512 512" viewBox="0 0 512 512" xmlns="http://www.w3.org/2000/svg"><g id="_x32_2_Full_stack_development"><g><path d="m492.361 444.922h-20.805v-274.333c0-10.873-8.848-19.721-19.721-19.721h-46.433c0-41.103 0-83.642 0-121.549 0-11.948-9.723-21.671-21.671-21.671-72.146 0-176.934 0-255.462 0-11.948 0-21.671 9.723-21.671 21.671v121.549h-38.481c-15.258 0-27.672 12.414-27.672 27.672v266.383h-20.806c-6.613 0-11.991 5.381-11.991 11.993v35.445c0 6.613 5.378 11.991 11.991 11.991h472.722c6.613 0 11.991-5.378 11.991-11.991v-35.445c0-6.613-5.378-11.994-11.991-11.994zm-333.559-427.535h224.929c6.579 0 11.932 5.352 11.932 11.932v24.688h-236.86v-36.62zm-42.464 11.932c0-6.579 5.352-11.932 11.932-11.932h20.794v36.62h-32.725v-24.688zm0 34.427h279.325v253.512c0 6.579-5.352 11.932-11.932 11.932h-255.462c-6.579 0-11.932-5.352-11.932-11.932v-253.512zm11.931 275.183h255.462c11.948 0 21.671-9.723 21.671-21.671v-129.046h23.578c2.887 0 5.233 2.347 5.233 5.233v218.637c0 2.887-2.347 5.233-5.233 5.233h-345.957c-2.887 0-5.236-2.347-5.236-5.233v-218.636c0-2.887 2.349-5.233 5.236-5.233h23.575v129.046c0 11.947 9.723 21.67 21.671 21.67zm-78.085-160.389c0-9.889 8.044-17.933 17.933-17.933h38.482v17.866h-23.576c-8.258 0-14.975 6.717-14.975 14.973v218.637c0 8.256 6.717 14.973 14.975 14.973h345.957c8.256 0 14.973-6.717 14.973-14.973v-218.637c0-8.256-6.717-14.973-14.973-14.973h-23.578v-17.866h46.433c5.504 0 9.982 4.477 9.982 9.982v274.334c-102.036 0-343.704 0-411.633 0zm242.025 276.122v12.191c0 1.607-1.308 2.915-2.915 2.915h-66.587c-1.607 0-2.915-1.308-2.915-2.915v-12.191zm202.404 37.699c0 1.241-1.011 2.252-2.252 2.252h-472.722c-1.241 0-2.252-1.011-2.252-2.252v-35.445c0-1.244 1.011-2.254 2.252-2.254h190.413v12.191c0 6.979 5.676 12.654 12.654 12.654h66.587c6.979 0 12.654-5.676 12.654-12.654v-12.191h190.413c1.241 0 2.252 1.011 2.252 2.254v35.445z"/><path d="m332.357 30.829h-153.102c-2.689 0-4.87 2.18-4.87 4.87 0 2.689 2.18 4.87 4.87 4.87h153.102c2.689 0 4.87-2.18 4.87-4.87s-2.181-4.87-4.87-4.87z"/><path d="m374.429 30.829h-21.621c-2.689 0-4.87 2.18-4.87 4.87 0 2.689 2.18 4.87 4.87 4.87h21.621c2.689 0 4.87-2.18 4.87-4.87s-2.181-4.87-4.87-4.87z"/><path d="m142.828 229.058c0 2.119 1.367 3.992 3.386 4.637l108.107 34.608c.483.155.982.233 1.484.233s1.001-.078 1.484-.233l108.107-34.608c2.019-.644 3.386-2.518 3.386-4.637s-1.367-3.992-3.386-4.637l-39.57-12.668 39.57-12.668c2.019-.644 3.386-2.518 3.386-4.637s-1.367-3.992-3.386-4.637l-39.57-12.668 39.57-12.668c2.019-.644 3.386-2.518 3.386-4.637s-1.367-3.992-3.386-4.637l-108.107-34.608c-.965-.309-2.002-.309-2.967 0l-108.107 34.608c-2.019.644-3.386 2.518-3.386 4.637s1.367 3.992 3.386 4.637l39.57 12.668-39.57 12.668c-2.019.644-3.386 2.518-3.386 4.637s1.367 3.992 3.386 4.637l39.57 12.668-39.57 12.668c-2.02.644-3.387 2.518-3.387 4.637zm20.841-69.217 92.136-29.496 92.136 29.496-92.136 29.496zm0 34.608 38.084-12.192 52.568 16.829c.949.304 1.976.317 2.967 0l52.568-16.829 38.084 12.192-92.136 29.496zm38.084 22.417 52.568 16.829c.949.304 1.976.317 2.967 0l52.568-16.829 38.084 12.192-92.136 29.496-92.136-29.496z"/></g></g><g id="Layer_1"/></svg>